<svg width="25" height="24" viewBox="0 0 25 24" fill="none" xmlns="http://www.w3.org/2000/svg">
<path d="M21.0508 7.74997H17.762C17.7986 7.71903 17.8361 7.68903 17.8717 7.65622C18.1564 7.40326 18.3859 7.09427 18.5458 6.74858C18.7056 6.40289 18.7924 6.02793 18.8008 5.64715C18.8131 5.2306 18.7401 4.81592 18.5864 4.42858C18.4327 4.04124 18.2014 3.68941 17.9067 3.39468C17.6121 3.09996 17.2603 2.86857 16.873 2.71471C16.4857 2.56085 16.0711 2.48778 15.6545 2.49997C15.2736 2.50817 14.8985 2.59492 14.5526 2.75479C14.2067 2.91465 13.8976 3.14419 13.6445 3.42903C13.2944 3.83487 13.0097 4.29288 12.8008 4.78653C12.5919 4.29288 12.3072 3.83487 11.957 3.42903C11.704 3.14419 11.3948 2.91465 11.049 2.75479C10.7031 2.59492 10.328 2.50817 9.94703 2.49997C9.53047 2.48778 9.11582 2.56085 8.72852 2.71471C8.34122 2.86857 7.98946 3.09996 7.69483 3.39468C7.40019 3.68941 7.1689 4.04124 7.01516 4.42858C6.86142 4.81592 6.78847 5.2306 6.80078 5.64715C6.80911 6.02793 6.89593 6.40289 7.05579 6.74858C7.21565 7.09427 7.44512 7.40326 7.72984 7.65622C7.76547 7.68715 7.80297 7.71715 7.83953 7.74997H4.55078C4.15296 7.74997 3.77143 7.908 3.49012 8.18931C3.20882 8.47061 3.05078 8.85214 3.05078 9.24997V12.25C3.05078 12.6478 3.20882 13.0293 3.49012 13.3106C3.77143 13.5919 4.15296 13.75 4.55078 13.75V19.75C4.55078 20.1478 4.70882 20.5293 4.99012 20.8106C5.27143 21.0919 5.65296 21.25 6.05078 21.25H11.6758C11.7752 21.25 11.8706 21.2105 11.9409 21.1401C12.0113 21.0698 12.0508 20.9744 12.0508 20.875V12.25H4.55078V9.24997H12.0508V12.25H13.5508V9.24997H21.0508V12.25H13.5508V20.875C13.5508 20.9744 13.5903 21.0698 13.6606 21.1401C13.7309 21.2105 13.8263 21.25 13.9258 21.25H19.5508C19.9486 21.25 20.3301 21.0919 20.6114 20.8106C20.8927 20.5293 21.0508 20.1478 21.0508 19.75V13.75C21.4486 13.75 21.8301 13.5919 22.1114 13.3106C22.3927 13.0293 22.5508 12.6478 22.5508 12.25V9.24997C22.5508 8.85214 22.3927 8.47061 22.1114 8.18931C21.8301 7.908 21.4486 7.74997 21.0508 7.74997ZM8.72359 6.53122C8.59246 6.41246 8.48729 6.26788 8.41469 6.10655C8.34209 5.94522 8.30363 5.77062 8.30172 5.59372C8.29698 5.38644 8.33365 5.1803 8.4096 4.98737C8.48554 4.79445 8.59922 4.61862 8.74398 4.47019C8.88874 4.32176 9.06167 4.20372 9.25264 4.12297C9.4436 4.04223 9.64876 4.00041 9.85609 3.99997H9.90203C10.0789 4.00187 10.2535 4.04034 10.4149 4.11293C10.5762 4.18553 10.7208 4.2907 10.8395 4.42184C11.6261 5.31059 11.9036 6.78434 12.0011 7.69559C11.0861 7.59903 9.61328 7.32153 8.72359 6.53122ZM16.8798 6.53122C15.9902 7.31872 14.5136 7.59622 13.5986 7.69372C13.7102 6.7084 14.0195 5.26559 14.7695 4.42278C14.8883 4.29164 15.0329 4.18647 15.1942 4.11387C15.3555 4.04127 15.5301 4.00281 15.707 4.0009H15.753C15.9603 4.0022 16.1653 4.04487 16.356 4.12641C16.5466 4.20795 16.7191 4.32672 16.8632 4.47576C17.0074 4.6248 17.1203 4.80112 17.1955 4.99438C17.2706 5.18763 17.3064 5.39394 17.3008 5.60122C17.2977 5.77692 17.2586 5.95012 17.1859 6.1101C17.1132 6.27007 17.0084 6.4134 16.878 6.53122H16.8798Z" fill="#5464D9"/>
</svg>
