<svg width="24" height="24" viewBox="0 0 24 24" fill="none" xmlns="http://www.w3.org/2000/svg">
<path d="M20.25 7.75033H16.9612C16.9978 7.71939 17.0353 7.68939 17.0709 7.65658C17.3557 7.40362 17.5851 7.09464 17.745 6.74894C17.9049 6.40325 17.9917 6.02829 18 5.64752C18.0123 5.23096 17.9394 4.81629 17.7856 4.42895C17.6319 4.0416 17.4006 3.68977 17.106 3.39505C16.8113 3.10033 16.4596 2.86893 16.0723 2.71508C15.685 2.56122 15.2703 2.48814 14.8538 2.50033C14.4728 2.50854 14.0977 2.59529 13.7518 2.75515C13.406 2.91502 13.0968 3.14455 12.8438 3.42939C12.4936 3.83523 12.2089 4.29325 12 4.78689C11.7911 4.29325 11.5064 3.83523 11.1562 3.42939C10.9032 3.14455 10.594 2.91502 10.2482 2.75515C9.90232 2.59529 9.52718 2.50854 9.14625 2.50033C8.72969 2.48814 8.31503 2.56122 7.92774 2.71508C7.54044 2.86893 7.18868 3.10033 6.89405 3.39505C6.59941 3.68977 6.36812 4.0416 6.21438 4.42895C6.06064 4.81629 5.98768 5.23096 6 5.64752C6.00833 6.02829 6.09514 6.40325 6.255 6.74894C6.41486 7.09464 6.64434 7.40362 6.92906 7.65658C6.96469 7.68752 7.00219 7.71752 7.03875 7.75033H3.75C3.35218 7.75033 2.97064 7.90837 2.68934 8.18967C2.40804 8.47098 2.25 8.85251 2.25 9.25033V12.2503C2.25 12.6482 2.40804 13.0297 2.68934 13.311C2.97064 13.5923 3.35218 13.7503 3.75 13.7503V19.7503C3.75 20.1482 3.90804 20.5297 4.18934 20.811C4.47064 21.0923 4.85218 21.2503 5.25 21.2503H18.75C19.1478 21.2503 19.5294 21.0923 19.8107 20.811C20.092 20.5297 20.25 20.1482 20.25 19.7503V13.7503C20.6478 13.7503 21.0294 13.5923 21.3107 13.311C21.592 13.0297 21.75 12.6482 21.75 12.2503V9.25033C21.75 8.85251 21.592 8.47098 21.3107 8.18967C21.0294 7.90837 20.6478 7.75033 20.25 7.75033ZM13.9688 4.42314C14.0875 4.29201 14.2321 4.18684 14.3934 4.11424C14.5547 4.04164 14.7293 4.00318 14.9062 4.00127H14.9522C15.1595 4.00257 15.3645 4.04523 15.5552 4.12677C15.7458 4.20831 15.9183 4.32709 16.0624 4.47613C16.2066 4.62517 16.3195 4.80149 16.3947 4.99474C16.4698 5.188 16.5056 5.39431 16.5 5.60158C16.4981 5.77849 16.4596 5.95309 16.387 6.11442C16.3144 6.27575 16.2093 6.42033 16.0781 6.53908C15.1884 7.32658 13.7119 7.60408 12.7969 7.70158C12.9094 6.70877 13.2188 5.26596 13.9688 4.42314ZM7.96031 4.45689C8.25088 4.16635 8.64441 4.00227 9.05531 4.00033H9.10125C9.27815 4.00224 9.45275 4.0407 9.61409 4.1133C9.77542 4.1859 9.92 4.29107 10.0388 4.42221C10.8253 5.31096 11.1028 6.78471 11.2003 7.69596C10.2891 7.60221 8.81531 7.32096 7.92656 6.53439C7.79543 6.41564 7.69026 6.27106 7.61766 6.10973C7.54506 5.9484 7.5066 5.7738 7.50469 5.59689C7.49887 5.38618 7.53593 5.17647 7.61361 4.98051C7.69128 4.78455 7.80796 4.6064 7.95656 4.45689H7.96031ZM3.75 9.25033H11.25V12.2503H3.75V9.25033ZM5.25 13.7503H11.25V19.7503H5.25V13.7503ZM18.75 19.7503H12.75V13.7503H18.75V19.7503ZM20.25 12.2503H12.75V9.25033H20.25V12.2503Z" fill="#9E9E9E"/>
</svg>
