<svg width="14" height="14" viewBox="0 0 14 14" fill="none" xmlns="http://www.w3.org/2000/svg">
<path fill-rule="evenodd" clip-rule="evenodd" d="M7.00081 2.00843C6.01798 2.00843 5.07541 2.39886 4.38044 3.09382C3.68548 3.78879 3.29505 4.73136 3.29505 5.71419C3.29505 6.69702 3.68548 7.63959 4.38044 8.33456C5.07541 9.02952 6.01798 9.41995 7.00081 9.41995C7.98364 9.41995 8.92621 9.02952 9.62118 8.33456C10.3161 7.63959 10.7066 6.69702 10.7066 5.71419C10.7066 4.73136 10.3161 3.78879 9.62118 3.09382C8.92621 2.39886 7.98364 2.00843 7.00081 2.00843ZM3.78511 2.49849C4.63797 1.64563 5.79469 1.1665 7.00081 1.1665C8.20693 1.1665 9.36365 1.64563 10.2165 2.49849C11.0694 3.35135 11.5485 4.50807 11.5485 5.71419C11.5485 6.92031 11.0694 8.07703 10.2165 8.92989C9.36365 9.78275 8.20693 10.2619 7.00081 10.2619C5.79469 10.2619 4.63797 9.78275 3.78511 8.92989C2.93225 8.07703 2.45312 6.92031 2.45312 5.71419C2.45312 4.50807 2.93225 3.35135 3.78511 2.49849Z" fill="#616161"/>
<path fill-rule="evenodd" clip-rule="evenodd" d="M6.99755 4.07652L6.63539 4.80506C6.59267 4.89703 6.52727 4.97672 6.44524 5.03659C6.36267 5.09686 6.26611 5.13496 6.16476 5.14736L5.37487 5.26199L5.96454 5.82743C5.97694 5.83931 5.98859 5.85194 5.99944 5.86525C6.06258 5.94268 6.10559 6.03453 6.12463 6.13261C6.14137 6.21881 6.13915 6.30747 6.11829 6.39247L5.98613 7.17707L6.7054 6.79666C6.7132 6.79254 6.72112 6.78866 6.72915 6.78504C6.8126 6.7474 6.9031 6.72794 6.99464 6.72794C7.08618 6.72794 7.17668 6.7474 7.26013 6.78504C7.26817 6.78866 7.27609 6.79254 7.28388 6.79666L8.01743 7.18463L7.90741 6.41292C7.88593 6.35006 7.87486 6.28389 7.87486 6.21704C7.87486 6.11914 7.89859 6.02269 7.94401 5.93596C7.96548 5.89497 7.99356 5.8578 8.02712 5.82594L8.62204 5.26128L7.8253 5.14048C7.72458 5.12787 7.62864 5.08986 7.54654 5.02993C7.46452 4.97006 7.39912 4.89038 7.3564 4.79842L6.99755 4.07652ZM9.09122 5.3323C9.08945 5.33207 9.08769 5.33183 9.08593 5.33156L9.09122 5.3323ZM7.20298 3.6631L7.20548 3.65791C7.20467 3.65965 7.20384 3.66138 7.20298 3.6631ZM6.98566 2.9486C7.10022 2.94638 7.2131 2.97634 7.31149 3.03508C7.40987 3.09382 7.4898 3.17897 7.5422 3.28087L7.54483 3.28598L7.5448 3.286L8.06112 4.32469L9.20422 4.498C9.3175 4.51367 9.42418 4.56075 9.51215 4.63396C9.60172 4.70852 9.66816 4.80709 9.70367 4.91809C9.73918 5.02909 9.74228 5.14792 9.71261 5.26063C9.68325 5.37219 9.62297 5.47317 9.53876 5.55195L8.74281 6.30744L8.91123 7.48878C8.93139 7.59953 8.92066 7.71382 8.88003 7.81905C8.83717 7.93006 8.7629 8.02618 8.6663 8.09567C8.5697 8.16516 8.45495 8.205 8.33607 8.21032C8.22147 8.21546 8.10781 8.1883 8.00802 8.13207L6.99464 7.59611L5.97972 8.13289C5.87942 8.18855 5.76544 8.21496 5.65075 8.209C5.53282 8.20288 5.41917 8.16279 5.3235 8.09356C5.22783 8.02434 5.1542 7.92894 5.1115 7.81884C5.07002 7.71189 5.05943 7.59552 5.08082 7.48296L5.27463 6.33232L4.45008 5.54166L4.44375 5.53546C4.36367 5.45537 4.30736 5.35464 4.28109 5.24448C4.25482 5.13431 4.25961 5.01902 4.29492 4.91141C4.33024 4.8038 4.3947 4.70809 4.48115 4.63492C4.5676 4.56174 4.67264 4.51397 4.7846 4.49691L4.78755 4.49646L4.78756 4.49647L5.93107 4.33053L6.4453 3.29605C6.49385 3.19485 6.56929 3.1089 6.66343 3.04763C6.75946 2.98513 6.8711 2.95082 6.98566 2.9486ZM3.6346 7.37375C3.83595 7.48998 3.90495 7.74744 3.78872 7.94879L2.46156 10.2478L3.46257 9.97961C3.68708 9.91945 3.91785 10.0526 3.9781 10.2771L4.24688 11.2786L5.3311 9.40054C5.44734 9.19919 5.70479 9.1302 5.90614 9.24644C6.10749 9.36267 6.17648 9.62013 6.06025 9.82147L4.46818 12.5793C4.38306 12.7267 4.21753 12.8084 4.04875 12.7862C3.87996 12.764 3.74115 12.6424 3.69703 12.4779L3.27402 10.9018L1.69789 11.3241C1.53343 11.3682 1.35862 11.3088 1.25497 11.1737C1.15132 11.0387 1.13924 10.8545 1.22436 10.707L3.05957 7.52787C3.1758 7.32652 3.43325 7.25752 3.6346 7.37375ZM10.368 7.37375C10.5694 7.25752 10.8268 7.32652 10.943 7.52787L12.7783 10.707C12.8634 10.8545 12.8513 11.0387 12.7476 11.1737C12.644 11.3088 12.4692 11.3681 12.3048 11.3241L10.7279 10.9018L10.3056 12.4778C10.2615 12.6422 10.1227 12.764 9.95394 12.7862C9.78513 12.8084 9.61956 12.7267 9.53443 12.5793L7.94236 9.82147C7.82612 9.62013 7.89512 9.36267 8.09647 9.24644C8.29781 9.1302 8.55527 9.19919 8.67151 9.40054L9.75544 11.2782L10.0236 10.2773C10.0838 10.0527 10.3146 9.91945 10.5392 9.9796L11.5411 10.248L10.2139 7.94879C10.0977 7.74744 10.1667 7.48998 10.368 7.37375Z" fill="#616161"/>
</svg>
