<svg width="28" height="28" viewBox="0 0 28 28" fill="none" xmlns="http://www.w3.org/2000/svg">
<g clip-path="url(#clip0_35591_8527)">
<path d="M13.9991 1.55566C11.5379 1.55566 9.13185 2.28552 7.08537 3.65293C5.0389 5.02034 3.44386 6.9639 2.50197 9.23783C1.56008 11.5118 1.31364 14.0139 1.79381 16.4279C2.27398 18.8419 3.4592 21.0593 5.19959 22.7997C6.93997 24.54 9.15736 25.7253 11.5713 26.2054C13.9853 26.6856 16.4875 26.4392 18.7614 25.4973C21.0353 24.5554 22.9789 22.9604 24.3463 20.9139C25.7137 18.8674 26.4436 16.4614 26.4436 14.0001C26.4436 10.6996 25.1325 7.53434 22.7987 5.20056C20.4649 2.86677 17.2996 1.55566 13.9991 1.55566ZM3.11025 14.0001C3.11099 11.3836 4.0586 8.8557 5.77803 6.88344L21.1158 22.2212C19.5384 23.5834 17.6032 24.4642 15.54 24.7591C13.4769 25.0541 11.3724 24.7507 9.47651 23.8851C7.58063 23.0194 5.97301 21.6279 4.84453 19.8757C3.71605 18.1235 3.11413 16.0843 3.11025 14.0001ZM22.2202 21.1168L6.88247 5.779C8.96953 4.03517 11.6336 3.13548 14.3506 3.25695C17.0676 3.37842 19.6408 4.51225 21.5639 6.43537C23.487 8.35849 24.6208 10.9317 24.7423 13.6486C24.8638 16.3656 23.9641 19.0297 22.2202 21.1168Z" fill="#212121"/>
</g>
<defs>
<clipPath id="clip0_35591_8527">
<rect width="28" height="28" fill="white"/>
</clipPath>
</defs>
</svg>
