<svg width="25" height="24" viewBox="0 0 25 24" fill="none" xmlns="http://www.w3.org/2000/svg">
<mask id="mask0_35591_1861" style="mask-type:luminance" maskUnits="userSpaceOnUse" x="1" y="1" width="23" height="22">
<path fill-rule="evenodd" clip-rule="evenodd" d="M1.60156 1H23.0946V22.4938H1.60156V1Z" fill="white"/>
</mask>
<g mask="url(#mask0_35591_1861)">
<path fill-rule="evenodd" clip-rule="evenodd" d="M6.71 19.675C7.29 19.675 7.837 19.895 8.416 20.128C11.963 21.768 16.158 21.022 18.891 18.29C22.497 14.682 22.497 8.813 18.891 5.207C17.145 3.461 14.823 2.5 12.351 2.5C9.878 2.5 7.555 3.462 5.81 5.208C3.076 7.94 2.332 12.135 3.957 15.648C4.191 16.227 4.417 16.791 4.417 17.377C4.417 17.962 4.216 18.551 4.039 19.071C3.893 19.499 3.672 20.145 3.814 20.287C3.953 20.431 4.603 20.204 5.032 20.057C5.547 19.881 6.131 19.679 6.71 19.675ZM12.326 22.494C10.798 22.494 9.26 22.171 7.821 21.505C7.397 21.335 7 21.175 6.715 21.175C6.387 21.177 5.946 21.329 5.52 21.476C4.646 21.776 3.558 22.15 2.753 21.348C1.951 20.545 2.321 19.46 2.619 18.587C2.766 18.157 2.917 17.713 2.917 17.377C2.917 17.101 2.784 16.749 2.58 16.242C0.707 12.197 1.573 7.322 4.75 4.147C6.778 2.118 9.477 1 12.35 1C15.223 1 17.923 2.117 19.951 4.146C24.143 8.338 24.143 15.158 19.951 19.35C17.896 21.406 15.129 22.494 12.326 22.494Z" fill="#9E9E9E"/>
</g>
<path fill-rule="evenodd" clip-rule="evenodd" d="M16.297 13.1621C15.745 13.1621 15.293 12.7151 15.293 12.1621C15.293 11.6091 15.736 11.1621 16.288 11.1621H16.297C16.849 11.1621 17.297 11.6091 17.297 12.1621C17.297 12.7151 16.849 13.1621 16.297 13.1621Z" fill="#9E9E9E"/>
<path fill-rule="evenodd" clip-rule="evenodd" d="M12.2892 13.1621C11.7372 13.1621 11.2852 12.7151 11.2852 12.1621C11.2852 11.6091 11.7272 11.1621 12.2802 11.1621H12.2892C12.8412 11.1621 13.2892 11.6091 13.2892 12.1621C13.2892 12.7151 12.8412 13.1621 12.2892 13.1621Z" fill="#9E9E9E"/>
<path fill-rule="evenodd" clip-rule="evenodd" d="M8.27939 13.1621C7.72739 13.1621 7.27539 12.7151 7.27539 12.1621C7.27539 11.6091 7.71839 11.1621 8.27039 11.1621H8.27939C8.83139 11.1621 9.27939 11.6091 9.27939 12.1621C9.27939 12.7151 8.83139 13.1621 8.27939 13.1621Z" fill="#9E9E9E"/>
</svg>
