<svg width="28" height="28" viewBox="0 0 28 28" fill="none" xmlns="http://www.w3.org/2000/svg">
<path d="M25.4281 8.8038L11.4281 22.8038C11.3061 22.9262 11.1612 23.0232 11.0017 23.0895C10.8422 23.1557 10.6711 23.1898 10.4984 23.1898C10.3256 23.1898 10.1546 23.1557 9.99505 23.0895C9.83551 23.0232 9.69062 22.9262 9.56868 22.8038L3.44368 16.6788C3.32159 16.5567 3.22475 16.4118 3.15868 16.2523C3.0926 16.0927 3.05859 15.9218 3.05859 15.7491C3.05859 15.5765 3.0926 15.4055 3.15868 15.246C3.22475 15.0865 3.32159 14.9415 3.44368 14.8194C3.56577 14.6973 3.71071 14.6005 3.87023 14.5344C4.02974 14.4683 4.20071 14.4343 4.37337 14.4343C4.54603 14.4343 4.717 14.4683 4.87651 14.5344C5.03603 14.6005 5.18097 14.6973 5.30306 14.8194L10.4995 20.0158L23.5709 6.94661C23.8174 6.70004 24.1519 6.56152 24.5006 6.56152C24.8493 6.56152 25.1837 6.70004 25.4302 6.94661C25.6768 7.19318 25.8153 7.5276 25.8153 7.8763C25.8153 8.225 25.6768 8.55942 25.4302 8.80599L25.4281 8.8038Z" fill="#5464D9"/>
</svg>
