<svg width="28" height="28" viewBox="0 0 28 28" fill="none" xmlns="http://www.w3.org/2000/svg">
<path fill-rule="evenodd" clip-rule="evenodd" d="M14.2863 25.6666C12.7054 25.6666 11.1643 25.6491 9.63944 25.6176C7.68877 25.5791 6.33894 24.3144 6.11844 22.3171C5.75094 19.0037 5.12211 11.1941 5.11627 11.1159C5.07661 10.6341 5.43594 10.2117 5.91777 10.1732C6.39261 10.1604 6.82194 10.4941 6.86044 10.9747C6.86627 11.0541 7.49394 18.8369 7.85794 22.1246C7.98277 23.2597 8.59527 23.8454 9.67561 23.8676C12.5923 23.9294 15.5684 23.9329 18.7768 23.8746C19.9248 23.8524 20.5454 23.2784 20.6738 22.1164C21.0354 18.8567 21.6654 11.0541 21.6724 10.9747C21.7109 10.4941 22.1368 10.1581 22.6139 10.1732C23.0958 10.2129 23.4551 10.6341 23.4166 11.1159C23.4096 11.1952 22.7773 19.0247 22.4133 22.3089C22.1869 24.3471 20.8406 25.5872 18.8083 25.6246C17.2531 25.6514 15.7528 25.6666 14.2863 25.6666Z" fill="#F75555"/>
<path fill-rule="evenodd" clip-rule="evenodd" d="M24.1593 8.15417H4.375C3.892 8.15417 3.5 7.76217 3.5 7.27917C3.5 6.79617 3.892 6.40417 4.375 6.40417H24.1593C24.6423 6.40417 25.0343 6.79617 25.0343 7.27917C25.0343 7.76217 24.6423 8.15417 24.1593 8.15417Z" fill="#F75555"/>
<path fill-rule="evenodd" clip-rule="evenodd" d="M20.3477 8.15412C19.02 8.15412 17.8673 7.20795 17.606 5.90595L17.3225 4.48728C17.263 4.27145 17.0168 4.08362 16.7368 4.08362H11.7983C11.5183 4.08362 11.2722 4.27145 11.201 4.54095L10.9292 5.90595C10.669 7.20795 9.51517 8.15412 8.1875 8.15412C7.7045 8.15412 7.3125 7.76212 7.3125 7.27912C7.3125 6.79612 7.7045 6.40412 8.1875 6.40412C8.6845 6.40412 9.11617 6.04945 9.21417 5.56178L9.49767 4.14312C9.78583 3.05578 10.7273 2.33362 11.7983 2.33362H16.7368C17.8078 2.33362 18.7493 3.05578 19.0258 4.09062L19.3222 5.56178C19.419 6.04945 19.8507 6.40412 20.3477 6.40412C20.8307 6.40412 21.2227 6.79612 21.2227 7.27912C21.2227 7.76212 20.8307 8.15412 20.3477 8.15412Z" fill="#F75555"/>
</svg>
