<svg width="26" height="26" viewBox="0 0 26 26" fill="none" xmlns="http://www.w3.org/2000/svg">
<path fill-rule="evenodd" clip-rule="evenodd" d="M18.8316 0.512919C20.6298 0.400535 22.4029 1.02489 23.7391 2.24862C24.9628 3.58474 25.5872 5.35791 25.4873 7.16853V18.8315C25.5997 20.6421 24.9628 22.4153 23.7516 23.7514C22.4154 24.9751 20.6298 25.5995 18.8316 25.4871H7.16859C5.35795 25.5995 3.58477 24.9751 2.24864 23.7514C1.02489 22.4153 0.400535 20.6421 0.512919 18.8315V7.16853C0.400535 5.35791 1.02489 3.58474 2.24864 2.24862C3.58477 1.02489 5.35795 0.400535 7.16859 0.512919H18.8316ZM11.726 19.0562L20.1299 10.6274C20.8916 9.85324 20.8916 8.60454 20.1299 7.84282L18.5065 6.2195C17.7323 5.44531 16.4836 5.44531 15.7094 6.2195L14.8728 7.06863C14.7479 7.1935 14.7479 7.40578 14.8728 7.53065C14.8728 7.53065 16.8582 9.50361 16.8957 9.55355C17.033 9.7034 17.1204 9.90319 17.1204 10.128C17.1204 10.5775 16.7583 10.9521 16.2963 10.9521C16.084 10.9521 15.8842 10.8647 15.7469 10.7273L13.6615 8.65448C13.5616 8.55459 13.3868 8.55459 13.2869 8.65448L7.33049 14.6108C6.91842 15.0229 6.68116 15.5723 6.66867 16.1592L6.59375 19.1187C6.59375 19.281 6.6437 19.4308 6.75608 19.5432C6.86847 19.6556 7.01831 19.718 7.18065 19.718H10.1151C10.7145 19.718 11.2889 19.4808 11.726 19.0562Z" fill="#5464D9"/>
</svg>
