<svg width="44" height="44" viewBox="0 0 44 44" fill="none" xmlns="http://www.w3.org/2000/svg">
<circle cx="21.9359" cy="22.0629" r="16.9086" fill="#D8D8D8"/>
<g filter="url(#filter0_d_35885_38964)">
<path d="M21.8512 26.522C22.7429 26.5285 23.647 26.8577 24.3321 27.521C25.0264 28.1932 25.4533 29.1672 25.4533 30.3761C25.4533 30.7926 25.1156 31.1303 24.6991 31.1304C24.2825 31.1304 23.9448 30.7926 23.9448 30.3761C23.9448 29.5393 23.6583 28.9686 23.2827 28.6049C22.8978 28.2323 22.3752 28.0344 21.8402 28.0305C21.3055 28.0266 20.7877 28.2163 20.4073 28.5827C20.0359 28.9404 19.7467 29.514 19.7467 30.3761C19.7467 30.7926 19.409 31.1303 18.9924 31.1304C18.5759 31.1304 18.2382 30.7926 18.2382 30.3761C18.2382 29.1507 18.6622 28.1691 19.3607 27.4962C20.0504 26.8319 20.9592 26.5155 21.8512 26.522Z" fill="#212121"/>
<path d="M12.4919 16.201C12.7117 15.8626 13.157 15.7588 13.5023 15.9589L13.5353 15.9792L19.2415 19.685C19.5909 19.9118 19.6903 20.379 19.4634 20.7284C19.3056 20.9714 19.0315 21.0933 18.7616 21.0687C18.9032 21.3923 18.982 21.7497 18.982 22.1256C18.982 23.5836 17.8 24.7656 16.342 24.7656C14.884 24.7656 13.702 23.5836 13.702 22.1256C13.702 20.7242 14.7938 19.578 16.1732 19.491L12.7137 17.2444L12.6817 17.2225C12.3584 16.9885 12.2721 16.5395 12.4919 16.201Z" fill="#212121"/>
<path d="M30.3275 15.9792C30.6768 15.7523 31.144 15.8516 31.3709 16.2009C31.5978 16.5503 31.4984 17.0174 31.149 17.2443L27.8772 19.3691C29.2318 19.4813 30.2963 20.6162 30.2963 21.9999C30.2963 23.4579 29.1143 24.6399 27.6563 24.6399C26.1983 24.6399 25.0163 23.4579 25.0163 21.9999C25.0163 21.6668 25.0781 21.3482 25.1906 21.0548C24.8935 21.1187 24.5747 20.9982 24.3994 20.7282C24.1796 20.3898 24.2659 19.9408 24.5892 19.7068L24.6212 19.6848L30.3275 15.9792Z" fill="#212121"/>
</g>
<defs>
<filter id="filter0_d_35885_38964" x="9.87012" y="13.3574" width="25.1221" height="21.2734" filterUnits="userSpaceOnUse" color-interpolation-filters="sRGB">
<feFlood flood-opacity="0" result="BackgroundImageFix"/>
<feColorMatrix in="SourceAlpha" type="matrix" values="0 0 0 0 0 0 0 0 0 0 0 0 0 0 0 0 0 0 127 0" result="hardAlpha"/>
<feMorphology radius="1" operator="dilate" in="SourceAlpha" result="effect1_dropShadow_35885_38964"/>
<feOffset dx="0.5" dy="0.5"/>
<feGaussianBlur stdDeviation="1"/>
<feComposite in2="hardAlpha" operator="out"/>
<feColorMatrix type="matrix" values="0 0 0 0 0 0 0 0 0 0 0 0 0 0 0 0 0 0 0.25 0"/>
<feBlend mode="normal" in2="BackgroundImageFix" result="effect1_dropShadow_35885_38964"/>
<feBlend mode="normal" in="SourceGraphic" in2="effect1_dropShadow_35885_38964" result="shape"/>
</filter>
</defs>
</svg>
