<svg width="24" height="24" viewBox="0 0 24 24" fill="none" xmlns="http://www.w3.org/2000/svg">
<path d="M17.179 16.0017H17.072" stroke="#9E9E9E" stroke-width="1.5" stroke-linecap="round" stroke-linejoin="round"/>
<path d="M8.84819 12.3145V16.0594" stroke="#9E9E9E" stroke-width="1.5" stroke-linecap="round" stroke-linejoin="round"/>
<path d="M10.7586 14.1872H6.9375" stroke="#9E9E9E" stroke-width="1.5" stroke-linecap="round" stroke-linejoin="round"/>
<path d="M15.3665 12.4275H15.2595" stroke="#9E9E9E" stroke-width="1.5" stroke-linecap="round" stroke-linejoin="round"/>
<path fill-rule="evenodd" clip-rule="evenodd" d="M16.4283 21.9623C13.4231 22.0132 10.473 22.0111 7.57275 21.9623C4.3535 21.9623 2 19.666 2 16.5109V11.8614C2 8.70627 4.3535 6.41005 7.57275 6.41005C10.4889 6.3602 13.4411 6.36123 16.4283 6.41005C19.6476 6.41005 22 8.70731 22 11.8614V16.5109C22 19.666 19.6476 21.9623 16.4283 21.9623Z" stroke="#9E9E9E" stroke-width="1.5" stroke-linecap="round" stroke-linejoin="round"/>
<path d="M8.07227 2C8.07227 2.74048 8.68475 3.34076 9.44029 3.34076H10.4968C11.6624 3.34492 12.6065 4.27026 12.6118 5.41266V6.08771" stroke="#9E9E9E" stroke-width="1.5" stroke-linecap="round" stroke-linejoin="round"/>
</svg>
