<svg width="24" height="24" viewBox="0 0 24 24" fill="none" xmlns="http://www.w3.org/2000/svg">
<path d="M2.16211 12.7969C2.40318 17.0483 5.42105 20.5686 9.42741 21.5672C8.08812 19.8274 7.18124 16.6042 7.09961 12.7969H2.16211Z" fill="#12D18E"/>
<path d="M8.20312 12.7969C8.32047 18.1618 10.1291 21.8542 11.7555 21.8542C13.3818 21.8542 15.1906 18.1614 15.3078 12.7969H8.20312Z" fill="#12D18E"/>
<path d="M15.3078 11.6921C15.1904 6.32717 13.3818 2.63477 11.7555 2.63477C10.1291 2.63477 8.32035 6.3275 8.20312 11.6921H15.3078Z" fill="#12D18E"/>
<path d="M9.42937 2.92188C5.42284 3.9206 2.40504 7.44106 2.16406 11.6922H7.10153C7.17934 7.88481 8.08752 4.66294 9.42937 2.92188Z" fill="#12D18E"/>
<path d="M14.0801 21.5672C18.0866 20.5684 21.1044 17.048 21.3454 12.7969H16.4079C16.3301 16.6042 15.4219 19.8261 14.0801 21.5672Z" fill="#12D18E"/>
<path d="M14.0801 2.92188C15.4194 4.66166 16.3263 7.88481 16.4079 11.6922H21.3454C21.1069 7.44073 18.0865 3.92171 14.0801 2.92188Z" fill="#12D18E"/>
</svg>
