<svg width="36" height="36" viewBox="0 0 36 36" fill="none" xmlns="http://www.w3.org/2000/svg">
<path d="M35.6125 11.3113C34.3644 11.1644 32.7859 10.3128 32.7859 9.90161C32.7859 9.34363 33.8872 8.66085 34.7903 8.66085H35.5538L35.4877 7.89733C35.2821 5.49656 34.8416 3.99885 34.8196 3.93276L34.6728 3.43352H29.2766L24.7614 0.386719H11.1204L6.85481 3.43352H1.1209L0.9814 3.9548C0.966747 4.01355 0.570263 5.48921 0.430768 7.85328L0.386719 8.53606L1.0695 8.5948C2.369 8.7196 3.55837 9.33633 3.55837 9.89427C3.55837 10.5403 2.2589 11.3406 1.19434 11.3406H0.423463L0.489514 12.1041C1.13559 19.1523 4.66698 28.9388 17.8822 35.495L18.1905 35.6492L18.5062 35.495C31.7434 28.9241 35.0692 19.1229 35.5317 12.0527H35.5244L35.6125 11.3113ZM17.9849 24.5191C13.969 24.5191 10.7092 21.2593 10.7092 17.2434C10.7092 13.2348 13.969 9.97506 17.9849 9.97506C21.9935 9.97506 25.2533 13.2348 25.2533 17.2434C25.2533 21.2593 21.9935 24.5191 17.9849 24.5191Z" fill="white"/>
</svg>
