<svg width="44" height="44" viewBox="0 0 44 44" fill="none" xmlns="http://www.w3.org/2000/svg">
<path fill-rule="evenodd" clip-rule="evenodd" d="M28.9841 16.0321C27.0664 15.5866 24.7546 15.3831 21.9991 15.3831C19.2436 15.3831 16.9317 15.5866 15.0141 16.0321V13.4067C15.0746 9.6044 18.1014 6.58856 21.9074 6.53906C23.7976 6.48773 25.5411 7.22106 26.8776 8.52456C28.2122 9.82806 28.9621 11.5716 28.9841 13.4214V16.0321ZM23.3741 30.1469C23.3741 30.9059 22.7581 31.5219 21.9991 31.5219C21.2401 31.5219 20.6241 30.9059 20.6241 30.1469V26.0751C20.6241 25.3161 21.2401 24.7001 21.9991 24.7001C22.7581 24.7001 23.3741 25.3161 23.3741 26.0751V30.1469ZM31.7341 16.9726V13.4049C31.7011 10.8034 30.6597 8.37056 28.7952 6.55556C26.9344 4.74056 24.4521 3.8404 21.8707 3.78906C16.5706 3.8569 12.3502 8.06256 12.2641 13.3866V16.9744C8.53506 18.7527 7.03906 22.1462 7.03906 27.7966C7.03906 36.9632 10.9551 40.2119 21.9991 40.2119C33.0449 40.2119 36.9609 36.9632 36.9609 27.7966C36.9609 22.1462 35.4631 18.7509 31.7341 16.9726Z" fill="#5464D9"/>
</svg>
