<svg width="24" height="25" viewBox="0 0 24 25" fill="none" xmlns="http://www.w3.org/2000/svg">
<path fill-rule="evenodd" clip-rule="evenodd" d="M4.45605 7.635C4.45605 10.466 6.76005 12.77 9.59205 12.77H9.62605C10.9931 12.765 12.2781 12.228 13.2401 11.257C14.2041 10.287 14.7331 8.999 14.7271 7.635C14.7271 4.804 12.4231 2.5 9.59205 2.5C6.76005 2.5 4.45605 4.804 4.45605 7.635ZM5.95605 7.635C5.95605 5.631 7.58705 4 9.59205 4C11.5961 4 13.2271 5.631 13.2271 7.638C13.2311 8.604 12.8581 9.515 12.1761 10.2C11.4951 10.887 10.5871 11.266 9.62305 11.27H9.59205C7.58705 11.27 5.95605 9.639 5.95605 7.635Z" fill="#212121"/>
<path fill-rule="evenodd" clip-rule="evenodd" d="M2 18.019C2 21.557 7.516 21.557 9.592 21.557C11.47 21.557 17.184 21.557 17.184 17.999C17.184 14.824 12.851 14.457 9.592 14.457C7.714 14.457 2 14.457 2 18.019ZM3.5 18.019C3.5 16.314 6.813 15.957 9.592 15.957C13.634 15.957 15.684 16.644 15.684 17.999C15.684 19.364 13.634 20.057 9.592 20.057C5.55 20.057 3.5 19.371 3.5 18.019Z" fill="#212121"/>
<path d="M16.4827 11.6318C16.1147 11.6318 15.7937 11.3608 15.7407 10.9858C15.6837 10.5758 15.9687 10.1958 16.3787 10.1388C17.6267 9.96377 18.5687 8.88077 18.5707 7.61877C18.5707 6.36477 17.6727 5.30677 16.4377 5.10477C16.0287 5.03677 15.7517 4.65177 15.8187 4.24277C15.8857 3.83377 16.2727 3.55877 16.6797 3.62377C18.6447 3.94577 20.0707 5.62677 20.0707 7.61977C20.0667 9.62477 18.5697 11.3468 16.5877 11.6248C16.5527 11.6298 16.5177 11.6318 16.4827 11.6318Z" fill="#212121"/>
<path d="M19.1947 18.4769C19.3077 18.7759 19.5927 18.9609 19.8957 18.9609C19.9847 18.9609 20.0747 18.9449 20.1617 18.9119C21.6647 18.3429 21.9797 17.3559 21.9797 16.6269C21.9797 15.6479 21.4127 14.3949 18.7067 13.9899C18.3047 13.9369 17.9157 14.2119 17.8537 14.6219C17.7927 15.0309 18.0757 15.4129 18.4857 15.4749C19.8087 15.6719 20.4797 16.0599 20.4797 16.6269C20.4797 16.7949 20.4797 17.1879 19.6297 17.5099C19.2427 17.6559 19.0477 18.0899 19.1947 18.4769Z" fill="#212121"/>
</svg>
