<svg width="32" height="32" viewBox="0 0 32 32" fill="none" xmlns="http://www.w3.org/2000/svg">
<path fill-rule="evenodd" clip-rule="evenodd" d="M15.9936 2.6689C14.7003 2.65083 13.4163 2.88996 12.2162 3.37239C11.0161 3.85482 9.92385 4.57094 9.00288 5.47912C8.08192 6.38731 7.35062 7.46947 6.85147 8.66271C6.35232 9.85596 6.09528 11.1365 6.09528 12.4299C6.09528 13.7234 6.35232 15.0039 6.85147 16.1972C7.35062 17.3904 8.08192 18.4726 9.00288 19.3808C9.92385 20.2889 11.0161 21.0051 12.2162 21.4875C13.4163 21.9699 14.7003 22.209 15.9936 22.191C18.5827 22.191 21.0657 21.1625 22.8964 19.3318C24.7271 17.501 25.7556 15.018 25.7556 12.429C25.7556 9.83994 24.7271 7.35694 22.8964 5.52621C21.0657 3.69549 18.5827 2.6689 15.9936 2.6689ZM16.3803 7.28418L17.6813 9.90134C17.7102 9.96737 17.7561 10.0245 17.8143 10.067C17.8726 10.1095 17.941 10.1358 18.0127 10.1433L20.9003 10.5814C20.983 10.5919 21.061 10.6259 21.1251 10.6792C21.1891 10.7325 21.2367 10.803 21.2621 10.8824C21.2875 10.9618 21.2897 11.0468 21.2685 11.1274C21.2472 11.2081 21.2035 11.2809 21.1423 11.3375L19.0127 13.3642C18.981 13.4248 18.9644 13.4921 18.9644 13.5604C18.9644 13.6288 18.981 13.6961 19.0127 13.7566L19.4203 16.629C19.4375 16.7117 19.4304 16.7976 19.3998 16.8764C19.3693 16.9551 19.3166 17.0234 19.2482 17.0729C19.1797 17.1224 19.0984 17.1511 19.0141 17.1555C18.9297 17.1599 18.8459 17.1398 18.7727 17.0976L16.2013 15.7376C16.1345 15.7073 16.0621 15.6917 15.9889 15.6917C15.9156 15.6917 15.8432 15.7073 15.7765 15.7376L13.205 17.0976C13.1318 17.1398 13.048 17.1599 12.9637 17.1555C12.8793 17.1511 12.798 17.1224 12.7296 17.0729C12.6611 17.0234 12.6085 16.9551 12.5779 16.8764C12.5474 16.7976 12.5403 16.7117 12.5574 16.629L13.0393 13.7566C13.06 13.69 13.0638 13.6193 13.0505 13.5509C13.0372 13.4824 13.0072 13.4183 12.9631 13.3642L10.8317 11.3223C10.7744 11.2651 10.7341 11.1933 10.7152 11.1146C10.6964 11.0359 10.6996 10.9536 10.7247 10.8766C10.7497 10.7997 10.7956 10.7312 10.8572 10.6788C10.9187 10.6263 10.9937 10.5919 11.0736 10.5794L13.9631 10.1585C14.0348 10.1511 14.1033 10.1248 14.1615 10.0823C14.2197 10.0398 14.2657 9.98261 14.2946 9.91658L15.5955 7.29942C15.6302 7.22513 15.6849 7.16205 15.7536 7.11735C15.8223 7.07264 15.9022 7.0481 15.9841 7.04651C16.0661 7.04492 16.1468 7.06635 16.2172 7.10837C16.2876 7.15038 16.3447 7.21129 16.3822 7.28418H16.3803ZM26.0947 19.1662C24.453 21.6262 21.9712 23.4038 19.1137 24.1662L21.8032 28.8253C21.8973 28.9885 22.0377 29.1201 22.2065 29.2035C22.3754 29.2869 22.5652 29.3183 22.752 29.2939C22.9387 29.2694 23.114 29.1901 23.2557 29.066C23.3974 28.9419 23.4991 28.7786 23.548 28.5968L24.5194 24.9796L28.1347 25.9491C28.3166 25.9977 28.5088 25.9912 28.687 25.9306C28.8653 25.8699 29.0215 25.7578 29.1361 25.6084C29.2507 25.459 29.3184 25.279 29.3307 25.0911C29.3429 24.9033 29.2993 24.716 29.2052 24.5529L26.0947 19.1662ZM12.8831 24.1681C10.0253 23.4086 7.54211 21.6338 5.8983 19.1757L2.79351 24.5529C2.69941 24.716 2.65575 24.9033 2.66805 25.0911C2.68035 25.279 2.74805 25.459 2.8626 25.6084C2.97715 25.7578 3.13342 25.8699 3.31165 25.9306C3.48989 25.9912 3.6821 25.9977 3.864 25.9491L7.48118 24.9796L8.45071 28.5968C8.4996 28.7786 8.60132 28.9419 8.74301 29.066C8.8847 29.1901 9.06 29.2694 9.24675 29.2939C9.43349 29.3183 9.6233 29.2869 9.79217 29.2035C9.96104 29.1201 10.1014 28.9885 10.1955 28.8253L12.8831 24.1681Z" fill="#FFC02D"/>
<rect x="7" y="3" width="18" height="18" rx="9" fill="#FFC02D"/>
</svg>
