<svg width="34" height="34" viewBox="0 0 34 34" fill="none" xmlns="http://www.w3.org/2000/svg">
<path fill-rule="evenodd" clip-rule="evenodd" d="M0 16.6763C0 7.47709 7.4807 0 16.6667 0C25.8526 0 33.3333 7.47709 33.3333 16.6763C33.3333 25.8562 25.8526 33.3333 16.6667 33.3333C7.4807 33.3333 0 25.8562 0 16.6763ZM22.7807 18.3631C22.9577 18.1862 23.1829 17.9128 23.2312 17.8485C23.4886 17.5109 23.6173 17.0928 23.6173 16.6763C23.6173 16.2084 23.4725 15.7742 23.199 15.4205C23.1766 15.3981 23.1327 15.3503 23.0755 15.2881C22.9685 15.1716 22.8149 15.0044 22.6681 14.8577C21.3489 13.4427 17.9062 11.1272 16.1044 10.4197C15.8309 10.3087 15.1392 10.0659 14.7691 10.0498C14.4152 10.0498 14.0774 10.1302 13.7556 10.291C13.3534 10.5162 13.0317 10.8699 12.8547 11.288C12.7421 11.5774 12.5652 12.4457 12.5652 12.4618C12.3882 13.4105 12.2917 14.9542 12.2917 16.6586C12.2917 18.2843 12.3882 19.762 12.533 20.7268C12.537 20.7308 12.5508 20.7998 12.5723 20.907C12.6377 21.2329 12.7738 21.9118 12.9191 22.1901C13.273 22.8654 13.9648 23.2835 14.7048 23.2835H14.7691C15.2518 23.2674 16.2653 22.8493 16.2653 22.8333C17.9706 22.1257 21.3329 19.9228 22.6842 18.4596L22.7807 18.3631Z" fill="white"/>
</svg>
