<svg width="33" height="32" viewBox="0 0 33 32" fill="none" xmlns="http://www.w3.org/2000/svg">
<path d="M21.2596 10.0762V27.8347H7.30647C5.91115 27.8347 4.76953 26.6931 4.76953 25.2978V10.0762H21.2596Z" fill="#F75555"/>
<path d="M9.84358 3.73242V25.2964C9.84358 26.6917 8.70196 27.8333 7.30664 27.8333H25.6994C27.0948 27.8333 28.2364 26.6917 28.2364 25.2964V3.73242H9.84358Z" fill="#FFCBC5"/>
<path d="M13.6484 6.9043H25.0647V9.44123H13.6484V6.9043ZM13.6484 11.3439H18.7223V12.6124H13.6484V11.3439ZM19.9908 11.3439H25.0647V12.6124H19.9908V11.3439ZM13.6484 13.8809H18.7223V15.1493H13.6484V13.8809ZM19.9908 13.8809H25.0647V15.1493H19.9908V13.8809ZM13.6484 16.4178H18.7223V17.6863H13.6484V16.4178ZM19.9908 16.4178H25.0647V17.6863H19.9908V16.4178ZM13.6484 18.9547H18.7223V20.2232H13.6484V18.9547ZM19.9908 18.9547H25.0647V20.2232H19.9908V18.9547ZM13.6484 21.4917H18.7223V22.7602H13.6484V21.4917ZM19.9908 21.4917H25.0647V22.7602H19.9908V21.4917ZM13.6484 24.0286H18.7223V25.2971H13.6484V24.0286ZM19.9908 24.0286H25.0647V25.2971H19.9908V24.0286Z" fill="#F75555"/>
</svg>
