<svg width="60" height="60" viewBox="0 0 60 60" fill="none" xmlns="http://www.w3.org/2000/svg">
<g clip-path="url(#clip0_35591_4311)">
<rect width="60" height="60" rx="10" fill="#FAFAFA"/>
<path d="M26.3333 41.4352V34.7686H34.6667V41.4352H38V51.4352H23V41.4352H26.3333Z" fill="#FFDC5D"/>
<path d="M47.86 64.7689L47.9067 46.3905C47.9067 43.1022 46.24 41.4355 42.9067 41.4355H34.5733L30.4533 47.7322L26.24 41.4355H16.24C13.275 41.4355 13 43.4239 13 46.3905V64.7689H47.86Z" fill="#3B93D9"/>
<path d="M39.5761 48.1016V64.7682H41.2878V48.1016H39.5761ZM19.6211 48.1016V64.7682H21.3344V48.1016H19.6211Z" fill="#1B6399"/>
<path d="M43 28.1022V13.1022L18 11.4355V28.1022H18.04C18.46 34.5855 23.87 39.7172 30.5 39.7172C36.7267 39.7172 41.9117 35.1889 42.8667 29.2672C42.9283 28.8839 42.9733 28.4955 43 28.1022Z" fill="#FFDC5D"/>
<path d="M42.8669 29.2667C45.1084 26.6097 46.336 23.2445 46.3319 19.7683C46.3319 15.8515 44.776 12.0951 42.0064 9.32554C39.2368 6.55595 35.4804 5 31.5636 5C29.4253 5.00184 27.3132 5.47113 25.3753 6.375C25.5586 6.36333 26.0069 6.35333 26.2369 6.34667C23.0984 6.37173 20.0968 7.63589 17.8861 9.86383C15.6753 12.0918 14.4344 15.103 14.4336 18.2417C14.4336 21.5617 15.8036 24.55 18.0003 26.705V21.435C28.1169 21.435 34.1469 17.1417 37.1586 13.7633C37.9586 16.275 39.6886 20.05 43.0003 21.1283V28.1017C42.9737 28.4918 42.9292 28.8806 42.8669 29.2667Z" fill="#FFAC33"/>
<path d="M35.7791 34.3072H25.0391C25.0391 34.3072 26.3807 36.9905 30.4091 36.9905C34.4391 36.9905 35.7791 34.3072 35.7791 34.3072ZM31.2424 30.6022H29.5757C29.3547 30.6022 29.1428 30.5144 28.9865 30.3581C28.8302 30.2019 28.7424 29.9899 28.7424 29.7689C28.7424 29.5479 28.8302 29.3359 28.9865 29.1796C29.1428 29.0233 29.3547 28.9355 29.5757 28.9355H31.2424C31.4634 28.9355 31.6754 29.0233 31.8317 29.1796C31.9879 29.3359 32.0757 29.5479 32.0757 29.7689C32.0757 29.9899 31.9879 30.2019 31.8317 30.3581C31.6754 30.5144 31.4634 30.6022 31.2424 30.6022Z" fill="#BF6952"/>
<path d="M24.6667 26.4355C24.2246 26.4355 23.8007 26.26 23.4882 25.9474C23.1756 25.6348 23 25.2109 23 24.7689V23.1022C23 22.6602 23.1756 22.2363 23.4882 21.9237C23.8007 21.6111 24.2246 21.4355 24.6667 21.4355C25.1087 21.4355 25.5326 21.6111 25.8452 21.9237C26.1577 22.2363 26.3333 22.6602 26.3333 23.1022V24.7689C26.3333 25.2109 26.1577 25.6348 25.8452 25.9474C25.5326 26.26 25.1087 26.4355 24.6667 26.4355ZM36.3333 26.4355C35.8913 26.4355 35.4674 26.26 35.1548 25.9474C34.8423 25.6348 34.6667 25.2109 34.6667 24.7689V23.1022C34.6667 22.6602 34.8423 22.2363 35.1548 21.9237C35.4674 21.6111 35.8913 21.4355 36.3333 21.4355C36.7754 21.4355 37.1993 21.6111 37.5118 21.9237C37.8244 22.2363 38 22.6602 38 23.1022V24.7689C38 25.2109 37.8244 25.6348 37.5118 25.9474C37.1993 26.26 36.7754 26.4355 36.3333 26.4355Z" fill="#662113"/>
</g>
<defs>
<clipPath id="clip0_35591_4311">
<rect width="60" height="60" rx="10" fill="white"/>
</clipPath>
</defs>
</svg>
