<svg width="28" height="29" viewBox="0 0 28 29" fill="none" xmlns="http://www.w3.org/2000/svg">
<path d="M25.0066 3.51101C24.4231 2.91206 23.5594 2.68892 22.754 2.92381L3.97469 8.38481C3.12501 8.62087 2.52277 9.2985 2.36053 10.1593C2.1948 11.0355 2.7737 12.1476 3.53001 12.6127L9.40192 16.2216C10.0042 16.5916 10.7815 16.4988 11.2799 15.9962L18.0038 9.23038C18.3422 8.87806 18.9025 8.87806 19.2409 9.23038C19.5794 9.57096 19.5794 10.1229 19.2409 10.4753L12.5054 17.2422C12.0058 17.7437 11.9124 18.5247 12.2801 19.1307L15.8679 25.0614C16.2881 25.7661 17.0117 26.1654 17.8054 26.1654C17.8987 26.1654 18.0038 26.1654 18.0971 26.1536C19.0075 26.0362 19.7311 25.4137 19.9996 24.5329L25.5669 5.77762C25.812 4.97902 25.5902 4.10996 25.0066 3.51101Z" fill="white"/>
</svg>
