<svg width="24" height="25" viewBox="0 0 24 25" fill="none" xmlns="http://www.w3.org/2000/svg">
<path fill-rule="evenodd" clip-rule="evenodd" d="M12.1971 23.0006H12.1951C11.0741 22.9996 10.0131 22.5056 9.20805 21.6086C8.93105 21.3016 8.95605 20.8266 9.26405 20.5506C9.57205 20.2726 10.0461 20.2976 10.3231 20.6066C10.8411 21.1836 11.5061 21.5006 12.1961 21.5006H12.1971C12.8901 21.5006 13.5581 21.1836 14.0771 20.6056C14.3551 20.2986 14.8291 20.2736 15.1361 20.5506C15.4441 20.8276 15.4691 21.3026 15.1921 21.6096C14.3841 22.5066 13.3211 23.0006 12.1971 23.0006Z" fill="#212121"/>
<mask id="mask0_33472_97239" style="mask-type:luminance" maskUnits="userSpaceOnUse" x="3" y="1" width="19" height="18">
<path fill-rule="evenodd" clip-rule="evenodd" d="M3 1.5H21.4969V18.848H3V1.5Z" fill="white"/>
</mask>
<g mask="url(#mask0_33472_97239)">
<path fill-rule="evenodd" clip-rule="evenodd" d="M12.247 3C8.75201 3 6.31601 5.738 6.31601 8.195C6.31601 10.274 5.73901 11.235 5.22901 12.083C4.82001 12.764 4.49701 13.302 4.49701 14.471C4.66401 16.357 5.90901 17.348 12.247 17.348C18.55 17.348 19.834 16.313 20 14.406C19.997 13.302 19.674 12.764 19.265 12.083C18.755 11.235 18.178 10.274 18.178 8.195C18.178 5.738 15.742 3 12.247 3ZM12.247 18.848C7.57101 18.848 3.34501 18.518 3.00001 14.535C2.99701 12.887 3.50001 12.049 3.94401 11.311C4.39301 10.563 4.81601 9.858 4.81601 8.195C4.81601 4.962 7.80201 1.5 12.247 1.5C16.692 1.5 19.678 4.962 19.678 8.195C19.678 9.858 20.101 10.563 20.55 11.311C20.994 12.049 21.497 12.887 21.497 14.471C21.148 18.518 16.923 18.848 12.247 18.848Z" fill="#212121"/>
</g>
</svg>
