<svg width="20" height="20" viewBox="0 0 20 20" fill="none" xmlns="http://www.w3.org/2000/svg">
<path fill-rule="evenodd" clip-rule="evenodd" d="M10.0006 2.86925C8.59656 2.86925 7.25002 3.42701 6.25722 4.41981C5.26441 5.41262 4.70666 6.75916 4.70666 8.1632C4.70666 9.56724 5.26441 10.9138 6.25722 11.9066C7.25002 12.8994 8.59656 13.4571 10.0006 13.4571C11.4046 13.4571 12.7512 12.8994 13.744 11.9066C14.7368 10.9138 15.2945 9.56724 15.2945 8.1632C15.2945 6.75916 14.7368 5.41262 13.744 4.41981C12.7512 3.42701 11.4046 2.86925 10.0006 2.86925ZM5.40674 3.56934C6.62511 2.35097 8.27757 1.6665 10.0006 1.6665C11.7236 1.6665 13.3761 2.35098 14.5945 3.56934C15.8128 4.78771 16.4973 6.44017 16.4973 8.1632C16.4973 9.88623 15.8128 11.5387 14.5945 12.7571C13.3761 13.9754 11.7236 14.6599 10.0006 14.6599C8.27757 14.6599 6.62511 13.9754 5.40674 12.7571C4.18838 11.5387 3.50391 9.88623 3.50391 8.1632C3.50391 6.44017 4.18838 4.78771 5.40674 3.56934Z" fill="#616161"/>
<path fill-rule="evenodd" clip-rule="evenodd" d="M9.99594 5.82387L9.47857 6.86466C9.41754 6.99604 9.32411 7.10988 9.20693 7.19541C9.08897 7.2815 8.95103 7.33594 8.80625 7.35365L7.67782 7.5174L8.52022 8.32517C8.53792 8.34215 8.55457 8.36019 8.57007 8.3792C8.66027 8.48982 8.72171 8.62104 8.74892 8.76115C8.77283 8.88429 8.76965 9.01094 8.73985 9.13237L8.55106 10.2532L9.57859 9.70979C9.58972 9.7039 9.60104 9.69837 9.61252 9.69319C9.73173 9.63943 9.86101 9.61162 9.99179 9.61162C10.1226 9.61162 10.2518 9.63943 10.3711 9.69319C10.3825 9.69837 10.3939 9.7039 10.405 9.70979L11.4529 10.264L11.2957 9.1616C11.265 9.07179 11.2492 8.97726 11.2492 8.88176C11.2492 8.7419 11.2831 8.60412 11.348 8.48022C11.3787 8.42166 11.4188 8.36856 11.4668 8.32306L12.3166 7.51639L11.1784 7.34383C11.0346 7.3258 10.8975 7.2715 10.7802 7.18589C10.663 7.10037 10.5696 6.98653 10.5086 6.85516L9.99594 5.82387ZM12.9869 7.61785C12.9844 7.61753 12.9819 7.61717 12.9793 7.61679L12.9869 7.61785ZM10.2894 5.23327L10.293 5.22587C10.2918 5.22835 10.2906 5.23082 10.2894 5.23327ZM9.97896 4.21257C10.1426 4.2094 10.3039 4.2522 10.4444 4.33611C10.585 4.42002 10.6992 4.54167 10.774 4.68723L10.7778 4.69454L10.7777 4.69456L11.5153 6.17841L13.1483 6.426C13.3102 6.44838 13.4626 6.51563 13.5882 6.62023C13.7162 6.72674 13.8111 6.86755 13.8618 7.02612C13.9126 7.18469 13.917 7.35445 13.8746 7.51546C13.8326 7.67484 13.7465 7.81909 13.6262 7.93164L12.4892 9.0109L12.7298 10.6985C12.7586 10.8567 12.7432 11.02 12.6852 11.1704C12.624 11.3289 12.5179 11.4663 12.3799 11.5655C12.2419 11.6648 12.0779 11.7217 11.9081 11.7293C11.7444 11.7366 11.582 11.6978 11.4395 11.6175L9.99179 10.8519L8.5419 11.6187C8.39861 11.6982 8.23578 11.7359 8.07194 11.7274C7.90347 11.7187 7.74112 11.6614 7.60444 11.5625C7.46777 11.4636 7.36259 11.3273 7.30158 11.17C7.24232 11.0173 7.22719 10.851 7.25776 10.6902L7.53463 9.04645L6.35669 7.91693L6.34765 7.90808C6.23325 7.79366 6.15282 7.64977 6.11528 7.49239C6.07775 7.33501 6.08459 7.1703 6.13505 7.01657C6.1855 6.86285 6.27759 6.72612 6.40109 6.62159C6.52458 6.51705 6.67464 6.44881 6.83459 6.42444L6.8388 6.4238L6.83881 6.42381L8.4724 6.18675L9.20702 4.70892C9.27637 4.56436 9.38414 4.44157 9.51862 4.35404C9.65581 4.26475 9.8153 4.21574 9.97896 4.21257ZM5.19173 10.5342C5.47937 10.7003 5.57794 11.068 5.4119 11.3557L3.51595 14.64L4.94597 14.2569C5.26669 14.1709 5.59638 14.3612 5.68244 14.6819L6.06642 16.1126L7.6153 13.4296C7.78135 13.142 8.14914 13.0434 8.43678 13.2095C8.72442 13.3755 8.82299 13.7433 8.65693 14.031L6.38255 17.9707C6.26096 18.1813 6.02449 18.298 5.78337 18.2663C5.54225 18.2346 5.34395 18.0608 5.28091 17.8259L4.67662 15.5742L2.425 16.1775C2.19006 16.2405 1.94033 16.1557 1.79226 15.9628C1.64418 15.7698 1.62692 15.5067 1.74852 15.296L4.37025 10.7544C4.5363 10.4667 4.90408 10.3682 5.19173 10.5342ZM14.8109 10.5342C15.0985 10.3682 15.4663 10.4667 15.6324 10.7544L18.2541 15.296C18.3757 15.5066 18.3584 15.7698 18.2104 15.9627C18.0623 16.1557 17.8126 16.2405 17.5777 16.1776L15.325 15.5742L14.7218 17.8257C14.6588 18.0606 14.4605 18.2345 14.2194 18.2663C13.9782 18.298 13.7417 18.1813 13.6201 17.9707L11.3457 14.031C11.1796 13.7433 11.2782 13.3755 11.5658 13.2095C11.8535 13.0434 12.2213 13.142 12.3873 13.4296L13.9358 16.1119L14.3189 14.6821C14.4049 14.3613 14.7346 14.1709 15.0554 14.2568L16.4868 14.6402L14.5907 11.3557C14.4247 11.068 14.5232 10.7003 14.8109 10.5342Z" fill="#616161"/>
</svg>
