<svg width="32" height="32" viewBox="0 0 32 32" fill="none" xmlns="http://www.w3.org/2000/svg">
<path d="M16.2641 30.4001C23.7751 30.4001 29.864 24.3111 29.864 16.8001C29.864 9.289 23.7751 3.20007 16.2641 3.20007C8.75299 3.20007 2.66406 9.289 2.66406 16.8001C2.66406 24.3111 8.75299 30.4001 16.2641 30.4001Z" fill="#F4900C"/>
<path d="M16.2641 28.8C23.7751 28.8 29.864 22.711 29.864 15.2C29.864 7.6889 23.7751 1.59998 16.2641 1.59998C8.75299 1.59998 2.66406 7.6889 2.66406 15.2C2.66406 22.711 8.75299 28.8 16.2641 28.8Z" fill="#FFCC4D"/>
<path d="M16.2664 27.1999C22.452 27.1999 27.4664 22.1855 27.4664 15.9999C27.4664 9.81433 22.452 4.79993 16.2664 4.79993C10.0808 4.79993 5.06641 9.81433 5.06641 15.9999C5.06641 22.1855 10.0808 27.1999 16.2664 27.1999Z" fill="#FFE8B6"/>
<path d="M16.2664 26.4C22.452 26.4 27.4664 21.3856 27.4664 15.2C27.4664 9.01441 22.452 4 16.2664 4C10.0808 4 5.06641 9.01441 5.06641 15.2C5.06641 21.3856 10.0808 26.4 16.2664 26.4Z" fill="#FFAC33"/>
<path d="M19.1541 16.1707C19.016 16.3046 18.9525 16.4982 18.984 16.688L19.4581 19.312C19.4981 19.5344 19.4043 19.7595 19.2181 19.888C19.0357 20.0214 18.7931 20.0374 18.5941 19.9307L16.232 18.6987C16.1499 18.655 16.0587 18.6315 15.9653 18.6288H15.8208C15.7707 18.6363 15.7216 18.6523 15.6768 18.6768L13.3141 19.9147C13.1973 19.9734 13.0651 19.9942 12.9355 19.9734C12.6197 19.9136 12.4091 19.6128 12.4608 19.2955L12.9355 16.6715C12.9669 16.48 12.9035 16.2854 12.7653 16.1494L10.8395 14.2827C10.6784 14.1264 10.6224 13.8918 10.696 13.68C10.7675 13.4688 10.9499 13.3147 11.1701 13.28L13.8208 12.8955C14.0224 12.8747 14.1995 12.752 14.2901 12.5707L15.4581 10.176C15.4859 10.1227 15.5216 10.0736 15.5648 10.032L15.6128 9.9947C15.6379 9.96697 15.6667 9.94403 15.6987 9.92537L15.7568 9.90403L15.8475 9.8667H16.072C16.2725 9.8875 16.4491 10.0075 16.5413 10.1867L17.7248 12.5707C17.8101 12.7451 17.976 12.8662 18.1675 12.8955L20.8181 13.28C21.0421 13.312 21.2293 13.4667 21.3035 13.68C21.3733 13.8939 21.3131 14.1286 21.1488 14.2827L19.1541 16.1707Z" fill="white"/>
</svg>
