<svg width="40" height="41" viewBox="0 0 40 41" fill="none" xmlns="http://www.w3.org/2000/svg">
<path d="M32.8123 23.8216L33.119 20.98C33.2806 19.4633 33.389 18.4633 33.304 17.8333H33.334C33.9045 17.8331 34.4577 17.6379 34.902 17.2799C35.3462 16.922 35.6546 16.4229 35.776 15.8655C35.8975 15.3081 35.8246 14.7259 35.5695 14.2156C35.3145 13.7053 34.8926 13.2976 34.3739 13.0601C33.8551 12.8227 33.2708 12.7698 32.7179 12.9102C32.1649 13.0507 31.6767 13.376 31.3341 13.8322C30.9916 14.2884 30.8154 14.848 30.8348 15.4182C30.8541 15.9884 31.0679 16.5347 31.4406 16.9666C30.8973 17.3016 30.1873 18.01 29.119 19.075C28.294 19.8966 27.8823 20.3066 27.4223 20.37C27.1674 20.4051 26.9078 20.3688 26.6723 20.265C26.249 20.0783 25.9656 19.5716 25.4006 18.5566L22.4173 13.2083C22.069 12.5833 21.7773 12.0583 21.514 11.6383C22.1811 11.2984 22.7143 10.7438 23.0278 10.0638C23.3413 9.38385 23.4167 8.61816 23.2419 7.89013C23.0671 7.16209 22.6523 6.5141 22.0643 6.05057C21.4763 5.58703 20.7494 5.33496 20.0006 5.33496C19.2519 5.33496 18.525 5.58703 17.937 6.05057C17.349 6.5141 16.9342 7.16209 16.7594 7.89013C16.5846 8.61816 16.66 9.38385 16.9735 10.0638C17.287 10.7438 17.8202 11.2984 18.4873 11.6383C18.224 12.06 17.9323 12.5833 17.5823 13.2083L14.6006 18.5566C14.034 19.5716 13.7506 20.0783 13.3273 20.265C13.0919 20.3688 12.8322 20.4051 12.5773 20.37C12.119 20.3066 11.7073 19.8966 10.8823 19.075C9.81398 18.01 9.10398 17.3016 8.56065 16.9666C8.93337 16.5347 9.14716 15.9884 9.16653 15.4182C9.1859 14.848 9.00969 14.2884 8.66715 13.8322C8.32461 13.376 7.83635 13.0507 7.28342 12.9102C6.73049 12.7698 6.14616 12.8227 5.62744 13.0601C5.10871 13.2976 4.6868 13.7053 4.43175 14.2156C4.17669 14.7259 4.10383 15.3081 4.22527 15.8655C4.34671 16.4229 4.65513 16.922 5.09934 17.2799C5.54355 17.6379 6.09683 17.8331 6.66731 17.8333H6.69731C6.61231 18.4633 6.72065 19.465 6.88232 20.98L7.18898 23.8216C7.35898 25.3983 7.49898 26.9 7.67232 28.25H32.329C32.5023 26.9 32.6423 25.4 32.8123 23.8216ZM18.1873 35.3333H21.814C26.5406 35.3333 28.904 35.3333 30.4806 33.9216C31.169 33.305 31.604 32.195 31.919 30.75H8.08231C8.39732 32.195 8.83231 33.3066 9.52065 33.9216C11.0973 35.3333 13.4606 35.3333 18.1873 35.3333Z" fill="white"/>
</svg>
