<svg width="28" height="28" viewBox="0 0 28 28" fill="none" xmlns="http://www.w3.org/2000/svg">
<path fill-rule="evenodd" clip-rule="evenodd" d="M24.2079 25.5963H15.7461C15.2631 25.5963 14.8711 25.2043 14.8711 24.7213C14.8711 24.2383 15.2631 23.8463 15.7461 23.8463H24.2079C24.6909 23.8463 25.0829 24.2383 25.0829 24.7213C25.0829 25.2043 24.6909 25.5963 24.2079 25.5963Z" fill="#212121"/>
<mask id="mask0_35591_39267" style="mask-type:luminance" maskUnits="userSpaceOnUse" x="2" y="3" width="21" height="23">
<path fill-rule="evenodd" clip-rule="evenodd" d="M2.33203 3.50012H22.376V25.5963H2.33203V3.50012Z" fill="white"/>
</mask>
<g mask="url(#mask0_35591_39267)">
<path fill-rule="evenodd" clip-rule="evenodd" d="M15.294 5.85287L4.30985 19.5904C4.11035 19.84 4.03685 20.162 4.11035 20.4712L4.90485 23.837L8.45035 23.7927C8.78752 23.7892 9.09902 23.6387 9.30552 23.382C13.0587 18.6862 20.2139 9.73321 20.4169 9.47071C20.6082 9.16037 20.6828 8.72171 20.5825 8.29937C20.4799 7.86654 20.2104 7.49904 19.8219 7.26454C19.739 7.20737 17.7732 5.68137 17.7125 5.63354C16.9729 5.04087 15.8937 5.14354 15.294 5.85287ZM4.21418 25.5964C3.80935 25.5964 3.45702 25.3187 3.36252 24.9232L2.40702 20.8737C2.20985 20.0349 2.40585 19.1692 2.94368 18.4972L13.9337 4.75154C13.9384 4.74687 13.9419 4.74104 13.9465 4.73637C15.1517 3.29554 17.331 3.08321 18.801 4.26271C18.8594 4.30821 20.8112 5.82487 20.8112 5.82487C21.5205 6.24721 22.0747 7.00204 22.2847 7.89571C22.4935 8.78004 22.3419 9.69237 21.8554 10.4635C21.8192 10.5207 21.7877 10.5697 10.6717 24.4764C10.1362 25.1437 9.33352 25.5322 8.47135 25.5427L4.22585 25.5964H4.21418Z" fill="#212121"/>
</g>
<path fill-rule="evenodd" clip-rule="evenodd" d="M18.927 13.6323C18.7403 13.6323 18.5537 13.5728 18.3938 13.4514L12.0332 8.56543C11.6505 8.27143 11.5782 7.7231 11.8722 7.3381C12.1673 6.95543 12.7157 6.88426 13.0995 7.17826L19.4613 12.0631C19.844 12.3571 19.9163 12.9066 19.6212 13.2904C19.4497 13.5144 19.1895 13.6323 18.927 13.6323Z" fill="#212121"/>
</svg>
