<svg width="20" height="20" viewBox="0 0 20 20" fill="none" xmlns="http://www.w3.org/2000/svg">
<circle cx="9.96892" cy="10.0295" r="7.68571" fill="#F75555"/>
<g filter="url(#filter0_d_35765_132777)">
<path d="M9.92971 12.0565C10.335 12.0595 10.746 12.2091 11.0574 12.5106C11.373 12.8162 11.567 13.2589 11.567 13.8084C11.567 13.9977 11.4135 14.1512 11.2242 14.1512C11.0348 14.1512 10.8813 13.9977 10.8813 13.8084C10.8813 13.428 10.7511 13.1686 10.5804 13.0033C10.4054 12.8339 10.1679 12.744 9.92468 12.7422C9.68167 12.7404 9.44628 12.8267 9.2734 12.9932C9.10458 13.1558 8.97312 13.4165 8.97312 13.8084C8.97311 13.9977 8.81961 14.1512 8.63026 14.1512C8.44092 14.1512 8.28742 13.9977 8.28741 13.8084C8.28741 13.2514 8.48014 12.8052 8.79767 12.4993C9.11114 12.1974 9.52425 12.0536 9.92971 12.0565Z" fill="#212121"/>
<path d="M5.67547 7.36518C5.77538 7.21133 5.9778 7.16416 6.13473 7.25513L6.14974 7.26434L8.74349 8.94877C8.90229 9.0519 8.94745 9.26424 8.84433 9.42304C8.77259 9.53351 8.648 9.58891 8.52535 9.57773C8.5897 9.72484 8.62552 9.88731 8.62552 10.0581C8.62551 10.7209 8.08825 11.2581 7.42552 11.2581C6.76279 11.2581 6.22553 10.7209 6.22552 10.0581C6.22552 9.42118 6.7218 8.90016 7.34879 8.8606L5.7763 7.83945L5.76174 7.82946C5.61481 7.7231 5.57556 7.51902 5.67547 7.36518Z" fill="#212121"/>
<path d="M13.7826 7.26434C13.9414 7.16122 14.1537 7.20632 14.2568 7.36512C14.36 7.52393 14.3148 7.73626 14.156 7.8394L12.6688 8.80519C13.2845 8.85619 13.7684 9.37207 13.7684 10.001C13.7684 10.6637 13.2311 11.201 12.5684 11.201C11.9056 11.201 11.3684 10.6637 11.3684 10.001C11.3684 9.84963 11.3965 9.7048 11.4476 9.57143C11.3126 9.60045 11.1677 9.54572 11.088 9.42299C10.9881 9.26914 11.0273 9.06506 11.1742 8.9587L11.1888 8.94871L13.7826 7.26434Z" fill="#212121"/>
</g>
<defs>
<filter id="filter0_d_35765_132777" x="3.12012" y="4.70898" width="14.6924" height="12.9414" filterUnits="userSpaceOnUse" color-interpolation-filters="sRGB">
<feFlood flood-opacity="0" result="BackgroundImageFix"/>
<feColorMatrix in="SourceAlpha" type="matrix" values="0 0 0 0 0 0 0 0 0 0 0 0 0 0 0 0 0 0 127 0" result="hardAlpha"/>
<feMorphology radius="1" operator="dilate" in="SourceAlpha" result="effect1_dropShadow_35765_132777"/>
<feOffset dx="0.5" dy="0.5"/>
<feGaussianBlur stdDeviation="1"/>
<feComposite in2="hardAlpha" operator="out"/>
<feColorMatrix type="matrix" values="0 0 0 0 0 0 0 0 0 0 0 0 0 0 0 0 0 0 0.25 0"/>
<feBlend mode="normal" in2="BackgroundImageFix" result="effect1_dropShadow_35765_132777"/>
<feBlend mode="normal" in="SourceGraphic" in2="effect1_dropShadow_35765_132777" result="shape"/>
</filter>
</defs>
</svg>
