<svg width="45" height="44" viewBox="0 0 45 44" fill="none" xmlns="http://www.w3.org/2000/svg">
<circle cx="22.4359" cy="22.0629" r="16.9086" fill="#D8D8D8"/>
<g filter="url(#filter0_d_35885_38977)">
<path d="M25.2647 26.7734C25.6813 26.7734 26.019 27.1111 26.019 27.5277C26.019 28.7366 25.5921 29.7106 24.8978 30.3828C24.2127 31.0461 23.3085 31.3752 22.4169 31.3817C21.5249 31.3883 20.6161 31.0719 19.9264 30.4076C19.2278 29.7347 18.8038 28.753 18.8038 27.5277C18.8038 27.1111 19.1415 26.7734 19.5581 26.7734C19.9747 26.7734 20.3124 27.1111 20.3124 27.5277C20.3124 28.3898 20.6016 28.9633 20.973 29.3211C21.3534 29.6874 21.8712 29.8772 22.4058 29.8733C22.9409 29.8694 23.4635 29.6715 23.8484 29.2989C24.224 28.9352 24.5105 28.3644 24.5105 27.5277C24.5105 27.1111 24.8482 26.7734 25.2647 26.7734ZM16.7162 18.2285C18.1742 18.2285 19.3562 19.4105 19.3562 20.8685C19.3562 22.3265 18.1742 23.5085 16.7162 23.5085C15.2581 23.5085 14.0762 22.3265 14.0762 20.8685C14.0762 19.4105 15.2581 18.2285 16.7162 18.2285ZM28.0305 18.2285C29.4885 18.2285 30.6705 19.4105 30.6705 20.8685C30.6705 22.3265 29.4885 23.5085 28.0305 23.5085C26.5724 23.5085 25.3905 22.3265 25.3905 20.8685C25.3905 19.4105 26.5724 18.2285 28.0305 18.2285Z" fill="#212121"/>
</g>
<defs>
<filter id="filter0_d_35885_38977" x="13.7619" y="17.9142" width="17.349" height="13.9086" filterUnits="userSpaceOnUse" color-interpolation-filters="sRGB">
<feFlood flood-opacity="0" result="BackgroundImageFix"/>
<feColorMatrix in="SourceAlpha" type="matrix" values="0 0 0 0 0 0 0 0 0 0 0 0 0 0 0 0 0 0 127 0" result="hardAlpha"/>
<feMorphology radius="0.125714" operator="dilate" in="SourceAlpha" result="effect1_dropShadow_35885_38977"/>
<feOffset dx="0.0628571" dy="0.0628571"/>
<feGaussianBlur stdDeviation="0.125714"/>
<feComposite in2="hardAlpha" operator="out"/>
<feColorMatrix type="matrix" values="0 0 0 0 0 0 0 0 0 0 0 0 0 0 0 0 0 0 0.25 0"/>
<feBlend mode="normal" in2="BackgroundImageFix" result="effect1_dropShadow_35885_38977"/>
<feBlend mode="normal" in="SourceGraphic" in2="effect1_dropShadow_35885_38977" result="shape"/>
</filter>
</defs>
</svg>
