<svg width="20" height="20" viewBox="0 0 20 20" fill="none" xmlns="http://www.w3.org/2000/svg">
<circle cx="9.96892" cy="10.0295" r="7.68571" fill="#12D18E"/>
<g filter="url(#filter0_d_35765_132757)">
<path d="M11.597 12.5133C11.597 13.0628 11.4029 13.5055 11.0873 13.8111C10.7759 14.1126 10.3649 14.2622 9.95965 14.2652C9.5542 14.2681 9.14109 14.1243 8.82762 13.8224C8.51009 13.5165 8.31736 13.0703 8.31735 12.5133V12.1705H11.597V12.5133ZM7.38343 7.88481C7.78888 7.88185 8.20199 8.02566 8.51546 8.32761C8.83299 8.63348 9.02573 9.07968 9.02573 9.63665C9.02572 9.826 8.87222 9.97951 8.68287 9.97951C8.49352 9.9795 8.34002 9.826 8.34001 9.63665C8.34001 9.24481 8.20855 8.98409 8.03973 8.82147C7.86685 8.65495 7.63146 8.5687 7.38845 8.57047C7.14527 8.57225 6.9077 8.66221 6.73276 8.83157C6.56201 8.99688 6.43181 9.25631 6.43181 9.63665C6.4318 9.826 6.2783 9.97951 6.08895 9.97951C5.8996 9.97951 5.7461 9.826 5.74609 9.63665C5.74609 9.08715 5.94014 8.64444 6.25575 8.33888C6.56717 8.03739 6.97813 7.88778 7.38343 7.88481ZM12.5263 7.88481C12.9317 7.88185 13.3448 8.02566 13.6583 8.32761C13.9758 8.63348 14.1686 9.07968 14.1686 9.63665C14.1686 9.826 14.0151 9.97951 13.8257 9.97951C13.6364 9.9795 13.4829 9.826 13.4829 9.63665C13.4829 9.24481 13.3514 8.98409 13.1826 8.82147C13.0097 8.65495 12.7743 8.5687 12.5313 8.57047C12.2881 8.57225 12.0506 8.66221 11.8756 8.83157C11.7049 8.99688 11.5747 9.25631 11.5747 9.63665C11.5747 9.826 11.4212 9.97951 11.2318 9.97951C11.0425 9.97951 10.889 9.826 10.889 9.63665C10.889 9.08715 11.083 8.64444 11.3986 8.33888C11.71 8.03739 12.121 7.88778 12.5263 7.88481Z" fill="#212121"/>
</g>
<defs>
<filter id="filter0_d_35765_132757" x="5.60324" y="7.74191" width="8.76571" height="6.72372" filterUnits="userSpaceOnUse" color-interpolation-filters="sRGB">
<feFlood flood-opacity="0" result="BackgroundImageFix"/>
<feColorMatrix in="SourceAlpha" type="matrix" values="0 0 0 0 0 0 0 0 0 0 0 0 0 0 0 0 0 0 127 0" result="hardAlpha"/>
<feMorphology radius="0.0571429" operator="dilate" in="SourceAlpha" result="effect1_dropShadow_35765_132757"/>
<feOffset dx="0.0285714" dy="0.0285714"/>
<feGaussianBlur stdDeviation="0.0571429"/>
<feComposite in2="hardAlpha" operator="out"/>
<feColorMatrix type="matrix" values="0 0 0 0 0 0 0 0 0 0 0 0 0 0 0 0 0 0 0.25 0"/>
<feBlend mode="normal" in2="BackgroundImageFix" result="effect1_dropShadow_35765_132757"/>
<feBlend mode="normal" in="SourceGraphic" in2="effect1_dropShadow_35765_132757" result="shape"/>
</filter>
</defs>
</svg>
