<svg width="44" height="44" viewBox="0 0 44 44" fill="none" xmlns="http://www.w3.org/2000/svg">
<circle cx="21.9359" cy="22.0629" r="16.9086" fill="#D8D8D8"/>
<g filter="url(#filter0_d_35885_38981)">
<path d="M25.5194 27.5285C25.5194 28.7374 25.0925 29.7114 24.3982 30.3836C23.7131 31.0469 22.8089 31.3761 21.9173 31.3826C21.0253 31.3891 20.1165 31.0727 19.4268 30.4084C18.7283 29.7355 18.3042 28.7539 18.3042 27.5285V26.7743H25.5194V27.5285ZM16.2496 17.3458C17.1416 17.3393 18.0504 17.6557 18.7401 18.32C19.4386 18.9929 19.8627 19.9745 19.8627 21.1999C19.8626 21.6164 19.5249 21.9541 19.1084 21.9541C18.6918 21.9541 18.3541 21.6164 18.3541 21.1999C18.3541 20.3378 18.0649 19.7642 17.6935 19.4065C17.3131 19.0401 16.7953 18.8504 16.2606 18.8543C15.7256 18.8582 15.203 19.0561 14.8181 19.4287C14.4425 19.7924 14.156 20.3631 14.156 21.1999C14.156 21.6164 13.8183 21.9541 13.4017 21.9541C12.9852 21.9541 12.6475 21.6164 12.6475 21.1999C12.6475 19.9909 13.0744 19.017 13.7687 18.3448C14.4538 17.6815 15.3579 17.3523 16.2496 17.3458ZM27.5639 17.3458C28.4559 17.3393 29.3647 17.6557 30.0543 18.32C30.7529 18.9929 31.1769 19.9745 31.1769 21.1999C31.1769 21.6164 30.8392 21.9541 30.4227 21.9541C30.0061 21.9541 29.6684 21.6164 29.6684 21.1999C29.6684 20.3378 29.3792 19.7642 29.0078 19.4065C28.6274 19.0401 28.1096 18.8504 27.5749 18.8543C27.0399 18.8582 26.5173 19.0561 26.1324 19.4287C25.7568 19.7924 25.4703 20.3631 25.4703 21.1999C25.4703 21.6164 25.1326 21.9541 24.716 21.9541C24.2995 21.9541 23.9618 21.6164 23.9617 21.1999C23.9617 19.9909 24.3886 19.017 25.083 18.3448C25.7681 17.6815 26.6722 17.3523 27.5639 17.3458Z" fill="#212121"/>
</g>
<defs>
<filter id="filter0_d_35885_38981" x="12.3332" y="17.0314" width="19.2836" height="14.7914" filterUnits="userSpaceOnUse" color-interpolation-filters="sRGB">
<feFlood flood-opacity="0" result="BackgroundImageFix"/>
<feColorMatrix in="SourceAlpha" type="matrix" values="0 0 0 0 0 0 0 0 0 0 0 0 0 0 0 0 0 0 127 0" result="hardAlpha"/>
<feMorphology radius="0.125714" operator="dilate" in="SourceAlpha" result="effect1_dropShadow_35885_38981"/>
<feOffset dx="0.0628571" dy="0.0628571"/>
<feGaussianBlur stdDeviation="0.125714"/>
<feComposite in2="hardAlpha" operator="out"/>
<feColorMatrix type="matrix" values="0 0 0 0 0 0 0 0 0 0 0 0 0 0 0 0 0 0 0.25 0"/>
<feBlend mode="normal" in2="BackgroundImageFix" result="effect1_dropShadow_35885_38981"/>
<feBlend mode="normal" in="SourceGraphic" in2="effect1_dropShadow_35885_38981" result="shape"/>
</filter>
</defs>
</svg>
