<svg width="44" height="44" viewBox="0 0 44 44" fill="none" xmlns="http://www.w3.org/2000/svg">
<circle cx="21.9359" cy="22.0629" r="16.9086" fill="#D8D8D8"/>
<g filter="url(#filter0_d_35885_38972)">
<path d="M26.6902 29.2295C27.0888 29.2497 27.4057 29.5792 27.4057 29.9828C27.4057 30.3864 27.0888 30.7159 26.6902 30.7361L26.6514 30.7371H17.2229C16.8063 30.7371 16.4686 30.3994 16.4686 29.9828C16.4686 29.5662 16.8063 29.2285 17.2229 29.2285H26.6514L26.6902 29.2295ZM16.2171 18.2285C17.6752 18.2285 18.8571 19.4105 18.8571 20.8685C18.8571 22.3265 17.6752 23.5085 16.2171 23.5085C14.7591 23.5085 13.5771 22.3265 13.5771 20.8685C13.5771 19.4105 14.7591 18.2285 16.2171 18.2285ZM27.5314 18.2285C28.9895 18.2285 30.1714 19.4105 30.1714 20.8685C30.1714 22.3265 28.9895 23.5085 27.5314 23.5085C26.0734 23.5085 24.8914 22.3265 24.8914 20.8685C24.8914 19.4105 26.0734 18.2285 27.5314 18.2285Z" fill="#212121"/>
</g>
<defs>
<filter id="filter0_d_35885_38972" x="13.2629" y="17.9142" width="17.349" height="13.2621" filterUnits="userSpaceOnUse" color-interpolation-filters="sRGB">
<feFlood flood-opacity="0" result="BackgroundImageFix"/>
<feColorMatrix in="SourceAlpha" type="matrix" values="0 0 0 0 0 0 0 0 0 0 0 0 0 0 0 0 0 0 127 0" result="hardAlpha"/>
<feMorphology radius="0.125714" operator="dilate" in="SourceAlpha" result="effect1_dropShadow_35885_38972"/>
<feOffset dx="0.0628571" dy="0.0628571"/>
<feGaussianBlur stdDeviation="0.125714"/>
<feComposite in2="hardAlpha" operator="out"/>
<feColorMatrix type="matrix" values="0 0 0 0 0 0 0 0 0 0 0 0 0 0 0 0 0 0 0.25 0"/>
<feBlend mode="normal" in2="BackgroundImageFix" result="effect1_dropShadow_35885_38972"/>
<feBlend mode="normal" in="SourceGraphic" in2="effect1_dropShadow_35885_38972" result="shape"/>
</filter>
</defs>
</svg>
