<svg width="369" height="129" viewBox="0 0 369 129" fill="none" xmlns="http://www.w3.org/2000/svg">
<path d="M352.623 166.712C351.947 162.254 358.181 154.482 358.181 154.482C358.181 154.482 367.827 159.156 368.695 164.881C369.165 167.977 367.321 170.606 364.717 170.747C362.856 170.847 361.124 169.639 360.21 167.856C359.859 169.726 358.611 171.077 356.991 171.164C354.927 171.275 353.012 169.28 352.623 166.712ZM208.158 3.31078C207.539 5.21477 208.396 7.29973 210.149 8.63961C207.944 8.69228 206.023 9.87389 205.404 11.7779C204.579 14.3144 206.376 17.1728 209.417 18.1619C215.041 19.9909 224.637 13.3519 224.637 13.3519C224.637 13.3519 220.437 2.22564 215.158 0.508902C212.117 -0.480203 208.983 0.773978 208.158 3.31078ZM162.204 219.916C167.469 216.68 170.089 203.276 170.089 203.276C170.089 203.276 156.661 197.314 149.9 201.47C146.244 203.718 145.121 207.974 147.279 210.825C148.82 212.862 151.618 213.606 154.293 212.986C152.646 215.008 152.336 217.509 153.678 219.283C155.387 221.542 159.17 221.781 162.204 219.916ZM291.688 240.813C297.527 237.224 300.433 222.358 300.433 222.358C300.433 222.358 285.541 215.746 278.042 220.355C273.987 222.848 272.743 227.568 275.135 230.73C276.844 232.989 279.947 233.814 282.914 233.127C281.087 235.369 280.744 238.144 282.232 240.11C284.128 242.616 288.323 242.881 291.688 240.813ZM290.54 70.4315C294.893 67.7558 297.059 56.6746 297.059 56.6746C297.059 56.6746 285.957 51.7459 280.368 55.1818C277.345 57.0398 276.417 60.5585 278.2 62.9152C279.475 64.5991 281.788 65.214 284 64.7016C282.638 66.3734 282.382 68.4413 283.491 69.9074C284.904 71.7752 288.032 71.973 290.54 70.4315ZM327.85 63.7367C328.459 65.0129 329.963 65.5694 331.586 65.2303C330.454 66.5603 330.056 68.358 330.756 69.8241C331.736 71.8758 334.468 72.4863 336.806 71.0782C341.131 68.4741 341.689 59.1465 341.689 59.1465C341.689 59.1465 333.352 56.7079 329.985 58.7357C328.045 59.9039 327.073 62.1107 327.85 63.7367ZM40.9096 29.2877C39.5147 30.2682 38.9149 31.9581 39.2546 33.5259C37.8944 32.6754 36.1013 32.6678 34.7063 33.6483C32.8478 34.9546 32.4004 37.5201 33.7067 39.3786C36.1224 42.8152 45.478 42.3795 45.478 42.3795C45.478 42.3795 48.9074 33.5132 46.6397 30.2873C45.3334 28.4288 42.7681 27.9813 40.9096 29.2877ZM196.175 53.9087C193.137 53.5673 190.323 55.1229 188.915 57.6319C188.1 54.8731 185.702 52.7314 182.664 52.3899C178.616 51.935 174.965 54.8475 174.51 58.8956C173.669 66.381 186.748 76.9164 186.748 76.9164C186.748 76.9164 201.891 69.0886 202.681 62.0621C203.136 58.0142 200.223 54.3636 196.175 53.9087ZM216.002 274.774C213.335 273.07 210.01 273.231 207.557 274.92C208.059 271.985 206.807 268.9 204.14 267.196C200.586 264.926 195.865 265.966 193.595 269.52C189.397 276.091 196.742 291.85 196.742 291.85C196.742 291.85 214.385 291.487 218.326 285.319C220.596 281.765 219.556 277.044 216.002 274.774ZM52.8976 64.1217C53.1444 65.9917 54.2942 67.34 55.7452 67.7334C54.4417 68.6025 53.6949 70.1605 53.9001 71.7163C54.1582 73.6713 55.8668 75.0265 57.8079 74.8484C61.6395 74.4964 67.3848 65.6692 67.3848 65.6692C67.3848 65.6692 61.2512 56.531 56.6054 57.8773C54.1386 58.5923 52.5461 61.4592 52.8976 64.1217ZM21.4518 61.164C24.2313 59.5756 25.7829 56.6931 25.6234 54.117C27.762 55.562 31.0332 55.6884 33.8128 54.0998C37.5161 51.9834 38.4276 47.9911 36.1008 45.4567C32.3984 41.4243 19.2248 42.9203 19.2248 42.9203C19.2248 42.9203 11.3383 53.805 12.8436 58.7479C13.8461 62.0392 17.7484 63.2804 21.4518 61.164ZM0.498886 10.5228C1.08885 12.2316 2.21108 13.0907 3.34599 12.7526C2.71844 14.4984 2.7103 16.9283 3.45757 19.0931C4.54388 22.2395 6.9241 23.9256 8.81443 22.4339C12.818 19.2743 11.4319 3.31079 11.4319 3.31079C11.4319 3.31079 3.30673 0.705505 1.1863 3.87561C0.0717353 5.54184 -0.231149 8.40836 0.498886 10.5228ZM178.358 213.421C178.863 214.885 179.825 215.621 180.797 215.331C180.259 216.826 180.252 218.908 180.892 220.762C181.823 223.456 183.861 224.9 185.48 223.623C188.909 220.917 187.722 207.244 187.722 207.244C187.722 207.244 180.763 205.013 178.947 207.728C177.992 209.155 177.733 211.61 178.358 213.421ZM317.157 53.7121C319.951 57.8892 330.658 54.4563 330.658 54.4563C330.658 54.4563 332.484 33.421 327.209 29.2575C324.718 27.2917 321.581 29.5135 320.15 33.6597C319.165 36.5121 319.176 39.7143 320.003 42.0145C318.507 41.5692 317.028 42.7012 316.251 44.9529C315.29 47.7392 315.688 51.5165 317.157 53.7121ZM277.293 309.464C272.794 305.743 262.017 313.126 262.017 313.126C262.017 313.126 266.978 337.15 274.236 340.03C277.662 341.39 280.415 337.874 280.63 332.782C280.777 329.279 279.701 325.718 278.015 323.433C279.828 323.431 281.098 321.679 281.214 318.914C281.359 315.492 279.658 311.42 277.293 309.464Z" fill="#CCCCFF"/>
</svg>
