<svg width="28" height="28" viewBox="0 0 28 28" fill="none" xmlns="http://www.w3.org/2000/svg">
<path fill-rule="evenodd" clip-rule="evenodd" d="M8.94703 2.33252H19.062C23.017 2.33252 25.6654 5.10919 25.6654 9.23919V18.772C25.6654 22.8904 23.017 25.6659 19.062 25.6659H8.94703C4.99203 25.6659 2.33203 22.8904 2.33203 18.772V9.23919C2.33203 5.10919 4.99203 2.33252 8.94703 2.33252ZM13.987 10.5704C13.4387 10.5704 12.9837 10.1142 12.9837 9.55535C12.9837 8.98369 13.4387 8.52869 14.0104 8.52869C14.5704 8.52869 15.0254 8.98369 15.0254 9.55535C15.0254 10.1142 14.5704 10.5704 13.987 10.5704ZM15.0137 18.4104C15.0137 18.9704 14.5587 19.4254 13.987 19.4254C13.427 19.4254 12.972 18.9704 12.972 18.4104V13.2537C12.972 12.6925 13.427 12.227 13.987 12.227C14.5587 12.227 15.0137 12.6925 15.0137 13.2537V18.4104Z" fill="#5464D9"/>
</svg>
