<svg width="14" height="14" viewBox="0 0 14 14" fill="none" xmlns="http://www.w3.org/2000/svg">
<path d="M7.52026 10.1915C7.60224 10.2735 7.64829 10.3848 7.64829 10.5007C7.64829 10.6167 7.60224 10.728 7.52026 10.81L6.97666 11.3569C6.40179 11.9314 5.62225 12.254 4.80952 12.2537C3.99679 12.2535 3.21746 11.9304 2.64295 11.3555C2.06845 10.7806 1.74584 10.0011 1.74609 9.18837C1.74635 8.37564 2.06945 7.5963 2.64432 7.0218L3.96338 5.70274C4.51555 5.15012 5.25804 4.82941 6.03889 4.80624C6.81975 4.78306 7.57995 5.05916 8.16393 5.57805C8.20702 5.61626 8.24216 5.66258 8.26735 5.71436C8.29254 5.76615 8.30728 5.82239 8.31073 5.87988C8.31419 5.93736 8.30628 5.99497 8.28748 6.0494C8.26867 6.10383 8.23932 6.15402 8.20112 6.19711C8.16291 6.2402 8.11659 6.27535 8.0648 6.30053C8.01301 6.32572 7.95677 6.34047 7.89929 6.34392C7.8418 6.34737 7.7842 6.33947 7.72977 6.32066C7.67534 6.30185 7.62514 6.27251 7.58205 6.2343C7.16496 5.8639 6.62212 5.66684 6.06455 5.68341C5.50698 5.69998 4.9768 5.92893 4.58244 6.32344L3.26338 7.64086C2.85306 8.05118 2.62255 8.60769 2.62255 9.18797C2.62255 9.76825 2.85306 10.3248 3.26338 10.7351C3.6737 11.1454 4.23021 11.3759 4.81049 11.3759C5.39077 11.3759 5.94728 11.1454 6.3576 10.7351L6.90119 10.1915C6.94183 10.1508 6.99008 10.1185 7.04319 10.0965C7.0963 10.0745 7.15323 10.0632 7.21072 10.0632C7.26822 10.0632 7.32515 10.0745 7.37826 10.0965C7.43137 10.1185 7.47962 10.1508 7.52026 10.1915ZM11.3528 2.64461C10.7778 2.07095 9.99878 1.74878 9.18658 1.74878C8.37439 1.74878 7.59536 2.07095 7.02041 2.64461L6.47682 3.18875C6.3948 3.27085 6.34875 3.38216 6.3488 3.4982C6.34885 3.61425 6.395 3.72552 6.47709 3.80754C6.55918 3.88956 6.6705 3.93561 6.78654 3.93556C6.90259 3.93551 7.01386 3.88936 7.09588 3.80727L7.63947 3.26368C8.04979 2.85336 8.60631 2.62284 9.18658 2.62284C9.76686 2.62284 10.3234 2.85336 10.7337 3.26368C11.144 3.67399 11.3745 4.23051 11.3745 4.81078C11.3745 5.39106 11.144 5.94758 10.7337 6.35789L9.41463 7.67805C9.02006 8.07233 8.48976 8.30098 7.9322 8.31725C7.37463 8.33351 6.83191 8.13616 6.41502 7.76555C6.328 7.68839 6.21389 7.64896 6.09779 7.65593C5.98169 7.66291 5.87312 7.71571 5.79596 7.80274C5.7188 7.88976 5.67937 8.00387 5.68634 8.11997C5.69331 8.23607 5.74612 8.34464 5.83315 8.4218C6.41699 8.94083 7.17711 9.21713 7.95796 9.19415C8.73882 9.17118 9.48138 8.85067 10.0337 8.29821L11.3528 6.97914C11.9268 6.40415 12.2491 5.62489 12.2491 4.81243C12.2491 3.99996 11.9268 3.2207 11.3528 2.64571V2.64461Z" fill="#5464D9"/>
</svg>
