<svg width="200" height="200" viewBox="0 0 200 200" fill="none" xmlns="http://www.w3.org/2000/svg">
<path d="M0 96C0 50.7452 0 28.1177 14.0589 14.0589C28.1177 0 50.7452 0 96 0H104C149.255 0 171.882 0 185.941 14.0589C200 28.1177 200 50.7452 200 96V104C200 149.255 200 171.882 185.941 185.941C171.882 200 149.255 200 104 200H96C50.7452 200 28.1177 200 14.0589 185.941C0 171.882 0 149.255 0 104V96Z" fill="#9BA7FB"/>
<path d="M84.9459 125.21C87.8795 126.973 89.6685 130.275 90.0266 134.41C90.3844 138.543 89.2872 143.386 86.5687 147.91C83.8502 152.434 80.0893 155.677 76.272 157.301C72.4528 158.926 68.6966 158.897 65.7631 157.134C62.8297 155.371 61.0405 152.068 60.6824 147.933C60.3246 143.8 61.4227 138.958 64.1412 134.434C66.8596 129.91 70.6198 126.667 74.437 125.043C78.2562 123.418 82.0124 123.447 84.9459 125.21Z" fill="#5464D9" stroke="black" stroke-width="3.07134"/>
<path d="M109.316 125.21C106.382 126.973 104.593 130.275 104.235 134.41C103.877 138.543 104.974 143.386 107.693 147.91C110.412 152.434 114.172 155.677 117.99 157.301C121.809 158.926 125.565 158.897 128.499 157.134C131.432 155.371 133.221 152.068 133.579 147.933C133.937 143.8 132.839 138.958 130.121 134.434C127.402 129.91 123.642 126.667 119.825 125.043C116.006 123.418 112.249 123.447 109.316 125.21Z" fill="#5464D9" stroke="black" stroke-width="3.07134"/>
<path d="M92.334 125.203H100.237C112.535 125.203 122.505 135.172 122.505 147.469V164.037C122.505 169.093 118.405 173.192 113.349 173.192H111.294C108.174 173.192 105.484 171.037 104.784 168.023L104.723 167.729L104.421 166.106C103.737 162.425 100.526 159.755 96.7822 159.755C93.1555 159.755 90.0285 162.26 89.2148 165.763L89.1426 166.106L88.8418 167.729C88.2536 170.895 85.4909 173.192 82.2705 173.192H79.9287C74.9273 173.192 70.8132 169.322 70.4551 164.387L70.4316 163.907L70.0723 147.971C69.7907 135.48 79.8397 125.203 92.334 125.203Z" fill="#5464D9" stroke="black" stroke-width="3.07134"/>
<path d="M106.004 157.055C103.7 162.43 100.821 158.207 97.1739 158.207C91.607 158.207 91.2231 162.238 88.3438 157.055C88.3438 152.178 92.2971 148.225 97.1739 148.225C102.051 148.225 106.004 152.178 106.004 157.055Z" fill="#FF981F"/>
<rect x="35.9814" y="48.5772" width="34.3438" height="21.3242" rx="10.6621" transform="rotate(-33.718 35.9814 48.5772)" fill="#3D478F" stroke="black" stroke-width="3.07134"/>
<rect x="-2.1298" y="0.424881" width="34.3438" height="21.3242" rx="10.6621" transform="matrix(-0.83178 -0.555105 -0.555105 0.83178 157.362 47.0416)" fill="#3D478F" stroke="black" stroke-width="3.07134"/>
<mask id="path-8-inside-1_35450_77546" fill="white">
<path d="M97.4155 36.8959C124.829 36.896 148.06 50.5593 156.059 69.4496C160.465 76.6025 163.569 88.7599 163.961 102.628C164.593 124.933 157.975 143.216 149.179 143.465C142.952 143.642 137.302 134.731 134.31 121.596C124.025 127.474 111.253 130.955 97.4155 130.955C83.4064 130.955 70.4904 127.385 60.1401 121.374C57.1752 134.518 51.4836 143.464 45.1987 143.286C36.4032 143.037 29.7773 125.011 30.3999 103.024C30.797 89 34.0472 76.7516 38.6313 69.7836C46.4967 50.7204 69.841 36.8959 97.4155 36.8959Z"/>
</mask>
<path d="M97.4155 36.8959C124.829 36.896 148.06 50.5593 156.059 69.4496C160.465 76.6025 163.569 88.7599 163.961 102.628C164.593 124.933 157.975 143.216 149.179 143.465C142.952 143.642 137.302 134.731 134.31 121.596C124.025 127.474 111.253 130.955 97.4155 130.955C83.4064 130.955 70.4904 127.385 60.1401 121.374C57.1752 134.518 51.4836 143.464 45.1987 143.286C36.4032 143.037 29.7773 125.011 30.3999 103.024C30.797 89 34.0472 76.7516 38.6313 69.7836C46.4967 50.7204 69.841 36.8959 97.4155 36.8959Z" fill="#5464D9"/>
<path d="M97.4155 36.8959L97.4155 33.8245H97.4155V36.8959ZM156.059 69.4496L153.231 70.6472L153.322 70.8618L153.444 71.0602L156.059 69.4496ZM163.961 102.628L167.032 102.541V102.541L163.961 102.628ZM149.179 143.465L149.266 146.535H149.266L149.179 143.465ZM134.31 121.596L137.305 120.914L136.384 116.873L132.786 118.929L134.31 121.596ZM97.4155 130.955V134.027H97.4155L97.4155 130.955ZM60.1401 121.374L61.6825 118.718L58.0647 116.617L57.1441 120.699L60.1401 121.374ZM45.1987 143.286L45.1116 146.357H45.1118L45.1987 143.286ZM30.3999 103.024L27.3298 102.937H27.3298L30.3999 103.024ZM38.6313 69.7836L41.1972 71.4716L41.3585 71.2264L41.4705 70.955L38.6313 69.7836ZM97.4155 36.8959L97.4155 39.9672C123.963 39.9673 145.842 53.1973 153.231 70.6472L156.059 69.4496L158.887 68.252C150.278 47.9212 125.694 33.8247 97.4155 33.8245L97.4155 36.8959ZM156.059 69.4496L153.444 71.0602C157.462 77.5846 160.507 89.1443 160.891 102.715L163.961 102.628L167.032 102.541C166.63 88.3756 163.467 75.6205 158.674 67.8389L156.059 69.4496ZM163.961 102.628L160.891 102.715C161.199 113.581 159.731 123.328 157.218 130.272C155.957 133.753 154.49 136.375 152.983 138.086C151.481 139.791 150.158 140.365 149.092 140.395L149.179 143.465L149.266 146.535C152.598 146.441 155.401 144.635 157.593 142.146C159.782 139.661 161.579 136.271 162.993 132.363C165.83 124.527 167.355 113.98 167.032 102.541L163.961 102.628ZM149.179 143.465L149.092 140.395C147.582 140.438 145.451 139.365 143.087 135.819C140.799 132.387 138.751 127.264 137.305 120.914L134.31 121.596L131.315 122.278C132.861 129.063 135.134 134.963 137.976 139.226C140.741 143.374 144.549 146.669 149.266 146.535L149.179 143.465ZM134.31 121.596L132.786 118.929C122.989 124.528 110.747 127.884 97.4155 127.884L97.4155 130.955L97.4155 134.027C111.759 134.027 125.061 130.419 135.834 124.263L134.31 121.596ZM97.4155 130.955V127.884C83.919 127.884 71.5397 124.443 61.6825 118.718L60.1401 121.374L58.5978 124.03C69.4411 130.327 82.8938 134.027 97.4155 134.027V130.955ZM60.1401 121.374L57.1441 120.699C55.7115 127.049 53.6607 132.18 51.3612 135.619C48.9872 139.169 46.8316 140.26 45.2857 140.216L45.1987 143.286L45.1118 146.357C49.8507 146.491 53.6834 143.197 56.4676 139.033C59.3263 134.758 61.6038 128.843 63.1362 122.05L60.1401 121.374ZM45.1987 143.286L45.2859 140.216C44.203 140.186 42.876 139.612 41.3785 137.936C39.8751 136.253 38.4097 133.674 37.1503 130.247C34.6377 123.411 33.1669 113.814 33.47 103.111L30.3999 103.024L27.3298 102.937C27.0103 114.221 28.5412 124.63 31.3847 132.366C32.8034 136.226 34.6047 139.574 36.798 142.028C38.9971 144.49 41.7967 146.263 45.1116 146.357L45.1987 143.286ZM30.3999 103.024L33.47 103.111C33.8587 89.386 37.0481 77.7784 41.1972 71.4716L38.6313 69.7836L36.0655 68.0955C31.0463 75.7248 27.7354 88.6141 27.3298 102.937L30.3999 103.024ZM38.6313 69.7836L41.4705 70.955C48.7326 53.354 70.708 39.9672 97.4155 39.9672V36.8959V33.8245C68.9741 33.8245 44.2609 48.0867 35.7922 68.6121L38.6313 69.7836Z" fill="black" mask="url(#path-8-inside-1_35450_77546)"/>
<path d="M80.5299 66.5535C86.8542 70.3541 88.4327 80.5662 82.9312 89.7218C77.4296 98.8773 67.6717 102.278 61.3471 98.4776C55.0225 94.6772 53.4443 84.4651 58.9458 75.3093C64.4474 66.1535 74.2053 62.7531 80.5299 66.5535Z" fill="#D9D9D9" stroke="black" stroke-width="3.07134"/>
<path d="M114.326 66.5535C108.001 70.3541 106.423 80.5662 111.924 89.7218C117.426 98.8773 127.184 102.278 133.508 98.4776C139.833 94.6772 141.411 84.4651 135.91 75.3093C130.408 66.1535 120.65 62.7531 114.326 66.5535Z" fill="#D9D9D9" stroke="black" stroke-width="3.07134"/>
<path d="M78.4394 76.5059C80.1853 77.5549 81.3018 79.5035 81.5597 81.9935C81.8174 84.4844 81.1925 87.4184 79.5454 90.1597C77.8982 92.901 75.601 94.8299 73.2805 95.7716C70.9608 96.7131 68.7159 96.6427 66.9699 95.5935C65.2241 94.5443 64.1078 92.5951 63.8501 90.105C63.5925 87.6141 64.2181 84.6805 65.8652 81.9394C67.5124 79.1982 69.8089 77.2686 72.1292 76.3269C74.4489 75.3855 76.6935 75.4569 78.4394 76.5059Z" fill="black" stroke="black" stroke-width="3.07134"/>
<path d="M116.869 76.5059C115.123 77.5549 114.007 79.5035 113.749 81.9935C113.491 84.4844 114.116 87.4184 115.763 90.1597C117.41 92.901 119.708 94.8299 122.028 95.7716C124.348 96.7131 126.593 96.6427 128.339 95.5935C130.085 94.5443 131.201 92.5951 131.458 90.105C131.716 87.6141 131.091 84.6805 129.443 81.9394C127.796 79.1982 125.5 77.2686 123.179 76.3269C120.86 75.3855 118.615 75.4569 116.869 76.5059Z" fill="black" stroke="black" stroke-width="3.07134"/>
<mask id="path-14-inside-2_35450_77546" fill="white">
<ellipse cx="69.6114" cy="79.8804" rx="2.54158" ry="3.38399" transform="rotate(31.0011 69.6114 79.8804)"/>
</mask>
<ellipse cx="69.6114" cy="79.8804" rx="2.54158" ry="3.38399" transform="rotate(31.0011 69.6114 79.8804)" fill="#D9D9D9"/>
<path d="M71.7899 81.1895L69.1573 79.6076C68.9857 79.8932 68.8008 79.9964 68.7644 80.0112C68.7523 80.0161 68.812 79.9889 68.9399 79.9925C69.0777 79.9964 69.2645 80.0368 69.4503 80.1484L67.8684 82.7811L66.2865 85.4137C67.9009 86.3838 69.6903 86.2648 71.0744 85.703C72.4572 85.1418 73.6315 84.0878 74.4225 82.7714L71.7899 81.1895ZM67.8684 82.7811L69.4503 80.1484C69.6361 80.2601 69.7595 80.4061 69.8276 80.5259C69.8908 80.6372 69.8948 80.7027 69.8935 80.6897C69.8894 80.6506 69.8939 80.4389 70.0655 80.1533L67.4328 78.5714L64.8002 76.9895C64.0092 78.3059 63.6298 79.8375 63.7834 81.322C63.9372 82.8078 64.6721 84.4436 66.2865 85.4137L67.8684 82.7811ZM67.4328 78.5714L70.0655 80.1533C70.2371 79.8677 70.4219 79.7644 70.4584 79.7496C70.4704 79.7448 70.4108 79.772 70.2828 79.7684C70.145 79.7645 69.9582 79.7241 69.7724 79.6125L71.3543 76.9798L72.9362 74.3472C71.3218 73.3771 69.5324 73.4961 68.1483 74.0579C66.7655 74.6191 65.5912 75.6731 64.8002 76.9895L67.4328 78.5714ZM71.3543 76.9798L69.7724 79.6125C69.5866 79.5008 69.4633 79.3548 69.3951 79.235C69.3319 79.1237 69.3279 79.0582 69.3292 79.0712C69.3333 79.1103 69.3289 79.322 69.1573 79.6076L71.7899 81.1895L74.4225 82.7714C75.2135 81.455 75.5929 79.9234 75.4393 78.4389C75.2856 76.9531 74.5506 75.3173 72.9362 74.3472L71.3543 76.9798Z" fill="white" mask="url(#path-14-inside-2_35450_77546)"/>
<mask id="path-16-inside-3_35450_77546" fill="white">
<ellipse cx="2.54158" cy="3.38399" rx="2.54158" ry="3.38399" transform="matrix(-0.857157 0.515055 0.515055 0.857157 116.883 75.6708)"/>
</mask>
<ellipse cx="2.54158" cy="3.38399" rx="2.54158" ry="3.38399" transform="matrix(-0.857157 0.515055 0.515055 0.857157 116.883 75.6708)" fill="#D9D9D9"/>
<path d="M114.269 81.1895L116.901 79.6076C117.073 79.8932 117.258 79.9964 117.294 80.0112C117.306 80.0161 117.247 79.9889 117.119 79.9925C116.981 79.9964 116.794 80.0368 116.608 80.1484L118.19 82.7811L119.772 85.4137C118.158 86.3838 116.368 86.2648 114.984 85.703C113.601 85.1418 112.427 84.0878 111.636 82.7714L114.269 81.1895ZM118.19 82.7811L116.608 80.1484C116.422 80.2601 116.299 80.4061 116.231 80.5259C116.168 80.6372 116.164 80.7027 116.165 80.6897C116.169 80.6506 116.165 80.4389 115.993 80.1533L118.626 78.5714L121.258 76.9895C122.049 78.3059 122.429 79.8375 122.275 81.322C122.121 82.8078 121.386 84.4436 119.772 85.4137L118.19 82.7811ZM118.626 78.5714L115.993 80.1533C115.822 79.8677 115.637 79.7644 115.6 79.7496C115.588 79.7448 115.648 79.772 115.776 79.7684C115.914 79.7645 116.1 79.7241 116.286 79.6125L114.704 76.9798L113.122 74.3472C114.737 73.3771 116.526 73.4961 117.91 74.0579C119.293 74.6191 120.467 75.6731 121.258 76.9895L118.626 78.5714ZM114.704 76.9798L116.286 79.6125C116.472 79.5008 116.595 79.3548 116.663 79.235C116.727 79.1237 116.731 79.0582 116.729 79.0712C116.725 79.1103 116.73 79.322 116.901 79.6076L114.269 81.1895L111.636 82.7714C110.845 81.455 110.466 79.9234 110.619 78.4389C110.773 76.9531 111.508 75.3173 113.122 74.3472L114.704 76.9798Z" fill="white" mask="url(#path-16-inside-3_35450_77546)"/>
<path d="M108.598 103.304C111.611 103.928 112.796 105.462 113.277 106.911C113.782 108.43 113.571 110.061 113.299 110.929L113.243 111.092C111.495 115.899 106.155 119.295 96.2588 119.295C86.5945 119.295 81.6179 115.532 79.2266 110.971C78.8394 110.014 78.5727 108.628 78.9072 107.367C79.2111 106.222 80.0654 104.954 82.417 104.174C84.7221 103.825 86.4957 104.387 88.5547 105.169C90.6305 105.958 93.0656 107.01 96.2588 107.01C99.0537 107.01 101.361 105.924 103.302 105.008C105.282 104.074 106.851 103.341 108.598 103.304Z" fill="#D9D9D9" stroke="black" stroke-width="3.07134"/>
<circle cx="61.2526" cy="108.099" r="6.33464" fill="#FF981F"/>
<circle cx="133.44" cy="108.099" r="6.33464" fill="#FF981F"/>
<path d="M75.4841 56.8089C74.4217 55.5898 71.3218 54.3533 67.4219 59.1601" stroke="black" stroke-width="3.07134" stroke-linecap="round"/>
<path d="M118.617 56.8089C119.68 55.5898 122.78 54.3533 126.68 59.1601" stroke="black" stroke-width="3.07134" stroke-linecap="round"/>
<path d="M147.777 106.893C146.666 108.331 145.372 109.917 143.983 111.482C141.445 114.345 138.481 117.266 135.687 119.047C137.039 125.982 139.051 131.696 141.448 135.668C143.51 139.085 145.685 140.958 147.777 141.519L147.777 106.893Z" fill="#3D478F" stroke="black" stroke-width="3.07134"/>
<path d="M46.9849 106.893C48.0958 108.331 49.3901 109.917 50.7784 111.482C53.3169 114.345 56.2807 117.266 59.0744 119.047C57.7231 125.982 55.7105 131.696 53.3135 135.668C51.2516 139.085 49.0767 140.958 46.9852 141.519L46.9849 106.893Z" fill="#3D478F" stroke="black" stroke-width="3.07134"/>
</svg>
