<svg width="28" height="28" viewBox="0 0 28 28" fill="none" xmlns="http://www.w3.org/2000/svg">
<path d="M11.8623 17.9649C12.3746 18.2728 12.6878 18.8496 12.7504 19.5718C12.8128 20.2936 12.6208 21.1392 12.1461 21.9293C11.6713 22.7194 11.0148 23.2859 10.3481 23.5696C9.6811 23.8534 9.02474 23.8476 8.5124 23.5398C8.00023 23.2319 7.68766 22.6555 7.62514 21.9334C7.56265 21.2116 7.75465 20.366 8.22944 19.5759C8.70422 18.7857 9.36071 18.2192 10.0274 17.9356C10.6943 17.6518 11.35 17.6572 11.8623 17.9649Z" fill="#5464D9" stroke="black" stroke-width="0.536399"/>
<path d="M16.1221 17.9649C15.6098 18.2728 15.2965 18.8496 15.234 19.5718C15.1715 20.2936 15.3636 21.1392 15.8383 21.9293C16.313 22.7194 16.9696 23.2859 17.6363 23.5696C18.3033 23.8534 18.9596 23.8476 19.472 23.5398C19.9841 23.2319 20.2967 22.6555 20.3592 21.9334C20.4217 21.2116 20.2297 20.366 19.7549 19.5759C19.2802 18.7857 18.6237 18.2192 17.957 17.9356C17.2901 17.6518 16.6344 17.6572 16.1221 17.9649Z" fill="#5464D9" stroke="black" stroke-width="0.536399"/>
<path d="M13.1543 17.9639H14.5342C16.682 17.9639 18.4238 19.7048 18.4238 21.8525V24.7461C18.4236 25.629 17.7072 26.3447 16.8242 26.3447H16.4658C15.9384 26.3447 15.4814 25.992 15.3418 25.4922L15.3174 25.3906L15.2656 25.1074C15.1462 24.4645 14.5845 23.998 13.9307 23.998C13.3176 23.9982 12.7862 24.4082 12.624 24.9893L12.5967 25.1074L12.5439 25.3906C12.4412 25.9436 11.9589 26.3447 11.3965 26.3447H10.9873C10.1421 26.3445 9.44168 25.7115 9.34082 24.8896L9.3291 24.7227L9.2666 21.9404C9.21739 19.7589 10.9722 17.9639 13.1543 17.9639Z" fill="#5464D9" stroke="black" stroke-width="0.536399"/>
<path d="M15.5413 23.5265C15.139 24.4652 14.6362 23.7277 13.9992 23.7277C13.027 23.7277 12.9599 24.4317 12.457 23.5265C12.457 22.6748 13.1475 21.9844 13.9992 21.9844C14.8509 21.9844 15.5413 22.6748 15.5413 23.5265Z" fill="#FF981F"/>
<rect x="3.31337" y="4.58202" width="5.99803" height="3.72419" rx="1.86209" transform="rotate(-33.718 3.31337 4.58202)" fill="#3D478F" stroke="black" stroke-width="0.536399"/>
<rect x="-0.371962" y="0.0742039" width="5.99803" height="3.72419" rx="1.86209" transform="matrix(-0.83178 -0.555105 -0.555105 0.83178 24.5122 4.31382)" fill="#3D478F" stroke="black" stroke-width="0.536399"/>
<mask id="path-8-inside-1_35668_19098" fill="white">
<path d="M14.0432 2.54102C18.8174 2.54113 22.863 4.91529 24.2707 8.2002C25.0485 9.44591 25.5972 11.5819 25.6662 14.0205C25.7765 17.9156 24.6212 21.1085 23.0852 21.1523C21.9974 21.1831 21.013 19.6257 20.4905 17.3311C18.6935 18.359 16.4616 18.9687 14.0432 18.9688C11.5948 18.9688 9.33781 18.3431 7.52953 17.292C7.01181 19.5883 6.02095 21.1522 4.92308 21.1211C3.38718 21.0771 2.23046 17.9294 2.3391 14.0898C2.40842 11.6418 2.97562 9.50338 3.77562 8.28613C5.14872 4.95608 9.22673 2.54102 14.0432 2.54102Z"/>
</mask>
<path d="M14.0432 2.54102C18.8174 2.54113 22.863 4.91529 24.2707 8.2002C25.0485 9.44591 25.5972 11.5819 25.6662 14.0205C25.7765 17.9156 24.6212 21.1085 23.0852 21.1523C21.9974 21.1831 21.013 19.6257 20.4905 17.3311C18.6935 18.359 16.4616 18.9687 14.0432 18.9688C11.5948 18.9688 9.33781 18.3431 7.52953 17.292C7.01181 19.5883 6.02095 21.1522 4.92308 21.1211C3.38718 21.0771 2.23046 17.9294 2.3391 14.0898C2.40842 11.6418 2.97562 9.50338 3.77562 8.28613C5.14872 4.95608 9.22673 2.54102 14.0432 2.54102Z" fill="#5464D9"/>
<path d="M14.0432 2.54102L14.0432 2.00462H14.0432V2.54102ZM24.2707 8.2002L23.7777 8.41149L23.7939 8.44934L23.8157 8.48428L24.2707 8.2002ZM25.6662 14.0205L26.2024 14.0053V14.0053L25.6662 14.0205ZM23.0852 21.1523L23.1004 21.6885L23.1005 21.6885L23.0852 21.1523ZM20.4905 17.3311L21.0135 17.212L20.8527 16.5059L20.2241 16.8655L20.4905 17.3311ZM14.0432 18.9688V19.5051H14.0432L14.0432 18.9688ZM7.52953 17.292L7.79908 16.8282L7.16705 16.4609L7.00626 17.174L7.52953 17.292ZM4.92308 21.1211L4.90771 21.6573L4.9079 21.6573L4.92308 21.1211ZM2.3391 14.0898L1.80291 14.0747L1.80291 14.0747L2.3391 14.0898ZM3.77562 8.28613L4.22388 8.58074L4.252 8.53795L4.27152 8.49061L3.77562 8.28613ZM14.0432 2.54102L14.0432 3.07741C18.6663 3.07753 22.4769 5.37619 23.7777 8.41149L24.2707 8.2002L24.7638 7.9889C23.249 4.4544 18.9686 2.00474 14.0432 2.00462L14.0432 2.54102ZM24.2707 8.2002L23.8157 8.48428C24.5241 9.61883 25.0625 11.6487 25.1301 14.0357L25.6662 14.0205L26.2024 14.0053C26.1319 11.515 25.5729 9.27299 24.7257 7.91611L24.2707 8.2002ZM25.6662 14.0205L25.1301 14.0357C25.1838 15.9333 24.9275 17.6354 24.4887 18.8481C24.2686 19.4561 24.0124 19.914 23.7494 20.2128C23.4871 20.5107 23.2561 20.6108 23.0699 20.6162L23.0852 21.1523L23.1005 21.6885C23.6823 21.6719 24.1717 21.3565 24.5546 20.9217C24.9367 20.4877 25.2504 19.8958 25.4974 19.2132C25.9927 17.8447 26.259 16.0028 26.2024 14.0053L25.6662 14.0205ZM23.0852 21.1523L23.07 20.6162C22.8066 20.6236 22.4349 20.4365 22.0224 19.8166C21.6233 19.2168 21.2662 18.3216 21.0135 17.212L20.4905 17.3311L19.9675 17.4502C20.2373 18.6352 20.6336 19.666 21.1293 20.4109C21.6116 21.1357 22.276 21.7119 23.1004 21.6885L23.0852 21.1523ZM20.4905 17.3311L20.2241 16.8655C18.5124 17.8447 16.373 18.4323 14.0432 18.4324L14.0432 18.9688L14.0432 19.5051C16.5503 19.5051 18.8747 18.8733 20.7568 17.7967L20.4905 17.3311ZM14.0432 18.9688V18.4324C11.6846 18.4324 9.52136 17.8293 7.79908 16.8282L7.52953 17.292L7.25997 17.7557C9.15425 18.8568 11.505 19.5051 14.0432 19.5051V18.9688ZM7.52953 17.292L7.00626 17.174C6.75605 18.2838 6.39859 19.1805 5.99762 19.7817C5.58365 20.4023 5.20793 20.5925 4.93827 20.5849L4.92308 21.1211L4.9079 21.6573C5.7361 21.6807 6.40474 21.1046 6.89009 20.377C7.38845 19.6298 7.78528 18.5965 8.05279 17.41L7.52953 17.292ZM4.92308 21.1211L4.93846 20.5849C4.74935 20.5795 4.51761 20.4792 4.25613 20.1865C3.99362 19.8926 3.73777 19.4421 3.51787 18.8438C3.07917 17.65 2.8224 15.974 2.87528 14.105L2.3391 14.0898L1.80291 14.0747C1.74716 16.0452 2.01443 17.8628 2.51091 19.2138C2.7586 19.8878 3.07312 20.4725 3.45607 20.9012C3.84005 21.331 4.32887 21.6407 4.90771 21.6573L4.92308 21.1211ZM2.3391 14.0898L2.87528 14.105C2.94313 11.7092 3.49971 9.6826 4.22388 8.58074L3.77562 8.28613L3.32737 7.99153C2.45154 9.32416 1.87372 11.5744 1.80291 14.0747L2.3391 14.0898ZM3.77562 8.28613L4.27152 8.49061C5.53926 5.41605 9.37812 3.07741 14.0432 3.07741V2.54102V2.00462C9.07534 2.00462 4.75817 4.49612 3.27973 8.08166L3.77562 8.28613Z" fill="black" mask="url(#path-8-inside-1_35668_19098)"/>
<path d="M11.0964 7.72073C12.2008 8.38453 12.4766 10.1677 11.5158 11.7666C10.555 13.3656 8.85108 13.9592 7.7465 13.2956C6.64193 12.6319 6.36626 10.8487 7.32709 9.2497C8.28793 7.65068 9.9918 7.05701 11.0964 7.72073Z" fill="#D9D9D9" stroke="black" stroke-width="0.536399"/>
<path d="M16.9974 7.72073C15.8929 8.38453 15.6172 10.1677 16.578 11.7666C17.5388 13.3656 19.2427 13.9592 20.3472 13.2956C21.4518 12.6319 21.7275 10.8487 20.7667 9.2497C19.8058 7.65068 18.1019 7.05701 16.9974 7.72073Z" fill="#D9D9D9" stroke="black" stroke-width="0.536399"/>
<path d="M10.7239 9.45932C11.0287 9.64257 11.2239 9.98313 11.2689 10.418C11.3138 10.8529 11.2045 11.3651 10.9169 11.8437C10.6293 12.3223 10.2284 12.6592 9.82331 12.8237C9.41823 12.9881 9.02591 12.9757 8.72099 12.7925C8.41605 12.6093 8.22097 12.2688 8.17597 11.8338C8.13101 11.3989 8.24033 10.8868 8.52793 10.4082C8.81554 9.92953 9.21639 9.59264 9.62154 9.42812C10.0267 9.26369 10.4189 9.27609 10.7239 9.45932Z" fill="black" stroke="black" stroke-width="0.536399"/>
<path d="M17.4402 9.45932C17.1353 9.64257 16.9402 9.98313 16.8952 10.418C16.8503 10.8529 16.9596 11.3651 17.2471 11.8437C17.5347 12.3223 17.9356 12.6592 18.3407 12.8237C18.7458 12.9881 19.1382 12.9757 19.4431 12.7925C19.748 12.6093 19.9431 12.2688 19.9881 11.8338C20.0331 11.3989 19.9237 10.8868 19.6361 10.4082C19.3485 9.92953 18.9477 9.59264 18.5425 9.42812C18.1374 9.26369 17.7451 9.27609 17.4402 9.45932Z" fill="black" stroke="black" stroke-width="0.536399"/>
<mask id="path-14-inside-2_35668_19098" fill="white">
<ellipse cx="9.18545" cy="10.0477" rx="0.443878" ry="0.591002" transform="rotate(31.0011 9.18545 10.0477)"/>
</mask>
<ellipse cx="9.18545" cy="10.0477" rx="0.443878" ry="0.591002" transform="rotate(31.0011 9.18545 10.0477)" fill="#D9D9D9"/>
<path d="M9.56592 10.2763L9.10614 10.0001C9.07618 10.0499 9.04389 10.068 9.03752 10.0705C9.03542 10.0714 9.04584 10.0666 9.06819 10.0673C9.09225 10.068 9.12487 10.075 9.15733 10.0945L8.88105 10.5543L8.60478 11.0141C8.88673 11.1835 9.19924 11.1627 9.44096 11.0646C9.68247 10.9666 9.88755 10.7825 10.0257 10.5526L9.56592 10.2763ZM8.88105 10.5543L9.15733 10.0945C9.18978 10.114 9.21132 10.1395 9.22321 10.1604C9.23426 10.1799 9.23496 10.1913 9.23472 10.189C9.23401 10.1822 9.23479 10.1452 9.26475 10.0954L8.80498 9.81908L8.3452 9.54281C8.20705 9.77271 8.1408 10.0402 8.16762 10.2995C8.19447 10.5589 8.32283 10.8446 8.60478 11.0141L8.88105 10.5543ZM8.80498 9.81908L9.26475 10.0954C9.29472 10.0455 9.32701 10.0274 9.33338 10.0249C9.33548 10.024 9.32506 10.0288 9.30271 10.0281C9.27865 10.0274 9.24602 10.0204 9.21357 10.0009L9.48985 9.54112L9.76612 9.08134C9.48417 8.91192 9.17166 8.93271 8.92994 9.03081C8.68843 9.12883 8.48334 9.3129 8.3452 9.54281L8.80498 9.81908ZM9.48985 9.54112L9.21357 10.0009C9.18112 9.9814 9.15958 9.9559 9.14769 9.93497C9.13664 9.91554 9.13594 9.90411 9.13618 9.90636C9.13688 9.9132 9.13611 9.95018 9.10614 10.0001L9.56592 10.2763L10.0257 10.5526C10.1638 10.3227 10.2301 10.0552 10.2033 9.79595C10.1764 9.53646 10.0481 9.25076 9.76612 9.08134L9.48985 9.54112Z" fill="white" mask="url(#path-14-inside-2_35668_19098)"/>
<mask id="path-16-inside-3_35668_19098" fill="white">
<ellipse cx="0.443878" cy="0.591002" rx="0.443878" ry="0.591002" transform="matrix(-0.857157 0.515055 0.515055 0.857157 17.4414 9.3125)"/>
</mask>
<ellipse cx="0.443878" cy="0.591002" rx="0.443878" ry="0.591002" transform="matrix(-0.857157 0.515055 0.515055 0.857157 17.4414 9.3125)" fill="#D9D9D9"/>
<path d="M16.9849 10.2763L17.4446 10.0001C17.4746 10.0499 17.5069 10.068 17.5133 10.0705C17.5154 10.0714 17.5049 10.0666 17.4826 10.0673C17.4585 10.068 17.4259 10.075 17.3935 10.0945L17.6697 10.5543L17.946 11.0141C17.6641 11.1835 17.3515 11.1627 17.1098 11.0646C16.8683 10.9666 16.6632 10.7825 16.5251 10.5526L16.9849 10.2763ZM17.6697 10.5543L17.3935 10.0945C17.361 10.114 17.3395 10.1395 17.3276 10.1604C17.3165 10.1799 17.3158 10.1913 17.3161 10.189C17.3168 10.1822 17.316 10.1452 17.286 10.0954L17.7458 9.81908L18.2056 9.54281C18.3437 9.77271 18.41 10.0402 18.3832 10.2995C18.3563 10.5589 18.228 10.8446 17.946 11.0141L17.6697 10.5543ZM17.7458 9.81908L17.286 10.0954C17.2561 10.0455 17.2238 10.0274 17.2174 10.0249C17.2153 10.024 17.2257 10.0288 17.2481 10.0281C17.2721 10.0274 17.3048 10.0204 17.3372 10.0009L17.0609 9.54112L16.7847 9.08134C17.0666 8.91192 17.3791 8.93271 17.6208 9.03081C17.8623 9.12883 18.0674 9.3129 18.2056 9.54281L17.7458 9.81908ZM17.0609 9.54112L17.3372 10.0009C17.3697 9.9814 17.3912 9.9559 17.4031 9.93497C17.4141 9.91554 17.4148 9.90411 17.4146 9.90636C17.4139 9.9132 17.4147 9.95018 17.4446 10.0001L16.9849 10.2763L16.5251 10.5526C16.3869 10.3227 16.3207 10.0552 16.3475 9.79595C16.3744 9.53646 16.5027 9.25076 16.7847 9.08134L17.0609 9.54112Z" fill="white" mask="url(#path-16-inside-3_35668_19098)"/>
<path d="M15.9902 14.1406C16.5176 14.2493 16.7255 14.5164 16.8096 14.7695C16.8801 14.982 16.8699 15.2071 16.8389 15.3662L16.8037 15.5C16.4985 16.3395 15.5653 16.9326 13.8369 16.9326C12.1516 16.9326 11.2826 16.2773 10.8643 15.4824C10.7958 15.3152 10.7479 15.0714 10.8066 14.8496C10.8596 14.6501 11.0081 14.4282 11.417 14.292C11.8207 14.2302 12.1309 14.3289 12.4912 14.4658C12.8537 14.6036 13.2793 14.7871 13.8369 14.7871C14.325 14.7871 14.7284 14.5974 15.0674 14.4375C15.4124 14.2748 15.6859 14.1476 15.9902 14.1406Z" fill="#D9D9D9" stroke="black" stroke-width="0.536399"/>
<circle cx="7.72742" cy="14.9774" r="1.10632" fill="#FF981F"/>
<circle cx="20.3329" cy="14.9774" r="1.10632" fill="#FF981F"/>
<path d="M10.2088 6.019C10.0233 5.80609 9.48188 5.59013 8.80078 6.42962" stroke="black" stroke-width="0.536399" stroke-linecap="round"/>
<path d="M17.7404 6.019C17.9259 5.80609 18.4673 5.59013 19.1484 6.42962" stroke="black" stroke-width="0.536399" stroke-linecap="round"/>
<path d="M22.8369 14.766C22.6428 15.0174 22.4156 15.2946 22.1729 15.5683C21.7301 16.0675 21.2135 16.577 20.7263 16.8881C20.9623 18.0996 21.312 19.0986 21.7307 19.7925C22.091 20.3893 22.4709 20.7166 22.8363 20.8143L22.8369 14.766Z" fill="#3D478F" stroke="black" stroke-width="0.536399"/>
<path d="M5.22946 14.766C5.42364 15.0174 5.65078 15.2946 5.89354 15.5683C6.33627 16.0675 6.8529 16.577 7.34016 16.8881C7.10415 18.0996 6.7544 19.0986 6.33566 19.7925C5.97542 20.3893 5.59551 20.7166 5.23012 20.8143L5.22946 14.766Z" fill="#3D478F" stroke="black" stroke-width="0.536399"/>
</svg>
