<svg width="358" height="78" viewBox="0 0 358 78" fill="none" xmlns="http://www.w3.org/2000/svg">
<path d="M344.856 63.5511C344.198 61.9189 343.798 60.1939 343.67 58.4382L347.616 60.7838C347.72 60.8585 347.842 60.9052 347.97 60.9193C348.131 60.9047 348.284 60.8384 348.405 60.7301L353.268 57.2219C353.109 58.9774 352.682 60.6981 352.004 62.3243C351.924 62.4678 351.894 62.6331 351.916 62.7956C351.967 62.9338 352.058 63.0537 352.178 63.1399L356.208 66.6877C354.206 67.0995 352.167 67.2976 350.123 67.2789L349.097 73.0408L346.333 67.9485L340.944 69.5362L344.848 63.8083C344.906 63.7222 344.965 63.6054 344.903 63.5215C344.842 63.4376 344.677 63.5814 344.774 63.6188" fill="#FFC02D"/>
<path d="M349.096 74.1392C348.899 74.1391 348.706 74.0858 348.537 73.9848C348.367 73.8839 348.228 73.739 348.134 73.5656L345.793 69.2525L341.254 70.5899C341.037 70.6538 340.805 70.6489 340.591 70.5759C340.377 70.5029 340.191 70.3653 340.058 70.1821C339.925 69.9989 339.852 69.7789 339.848 69.5524C339.845 69.3258 339.912 69.1038 340.039 68.9167L343.649 63.62C343.648 63.5729 343.649 63.5259 343.653 63.4791C343.062 61.8849 342.7 60.2146 342.577 58.5183C342.562 58.3181 342.603 58.1177 342.694 57.9388C342.785 57.76 342.923 57.6095 343.093 57.5039C343.263 57.3982 343.459 57.3413 343.66 57.3394C343.86 57.3375 344.057 57.3907 344.229 57.4931L347.95 59.7045L352.628 56.3305C352.799 56.2075 353.001 56.1361 353.211 56.1251C353.421 56.114 353.629 56.1636 353.812 56.268C353.995 56.3724 354.143 56.5272 354.24 56.714C354.338 56.9007 354.379 57.1115 354.36 57.3212C354.199 59.1002 353.78 60.846 353.115 62.5033L356.931 65.8625C357.084 65.9974 357.197 66.1724 357.256 66.3679C357.315 66.5634 357.319 66.7716 357.267 66.9691C357.215 67.1666 357.109 67.3456 356.96 67.486C356.812 67.6263 356.628 67.7224 356.428 67.7636C354.655 68.1281 352.852 68.3316 351.042 68.3713L350.176 73.2334C350.131 73.4873 349.998 73.7172 349.801 73.8827C349.603 74.0483 349.354 74.1393 349.096 74.1392ZM346.333 66.8502C346.53 66.8502 346.724 66.9034 346.893 67.0044C347.062 67.1053 347.202 67.2502 347.296 67.4238L348.567 69.7654L349.045 67.0854C349.09 66.8298 349.224 66.5987 349.424 66.433C349.623 66.2673 349.875 66.1776 350.134 66.18C351.339 66.1909 352.545 66.1234 353.742 65.9779L351.454 63.965C351.167 63.736 350.957 63.4235 350.855 63.0705C350.768 62.6759 350.817 62.2636 350.993 61.9002C351.294 61.1793 351.543 60.4374 351.737 59.6804L349.045 61.6215C348.733 61.8735 348.346 62.0128 347.945 62.0169C347.628 62.0019 347.321 61.9021 347.056 61.7278L345.077 60.5522C345.244 61.3246 345.468 62.0834 345.748 62.8221C345.761 62.8368 345.773 62.8529 345.785 62.8688C346.044 63.2203 346.172 63.814 345.753 64.4285L343.581 67.6143L346.024 66.8948C346.124 66.8652 346.228 66.8502 346.333 66.8502Z" fill="#FFC02D"/>
<path d="M43.527 33.915C44.6463 32.5519 45.9716 31.3752 47.4552 30.4273L47.2926 35.0672C47.2772 35.1961 47.2949 35.3272 47.344 35.448C47.4348 35.5856 47.5668 35.6905 47.7205 35.7474L53.1523 38.4283C51.5303 39.119 49.8103 39.5546 48.0518 39.72C47.8873 39.7174 47.727 39.7683 47.5947 39.8653C47.4977 39.9768 47.4362 40.1152 47.4179 40.2628L46.2378 45.5485C44.9106 43.9552 43.7531 42.2266 42.7847 40.3917L37.2189 42.2099L40.3683 37.3218L36.3737 33.26L43.2965 34.0293C43.4005 34.0407 43.5314 34.0375 43.5757 33.943C43.6201 33.8484 43.4139 33.7691 43.4279 33.8737" fill="#FFC02D"/>
<path d="M36.2521 42.7304C36.1572 42.5542 36.1109 42.3561 36.1181 42.1568C36.1253 41.9575 36.1857 41.7644 36.293 41.5979L38.9607 37.4583L35.5957 34.0364C35.4349 33.8729 35.3277 33.6639 35.2888 33.4379C35.2498 33.212 35.2811 32.9802 35.3783 32.7744C35.4755 32.5686 35.6338 32.3987 35.8316 32.2882C36.0293 32.1777 36.2569 32.1318 36.483 32.157L42.8849 32.8686C42.9256 32.8451 42.9677 32.824 43.0109 32.8055C44.1291 31.5203 45.4245 30.4036 46.8583 29.4887C47.0274 29.3805 47.2233 29.3214 47.4246 29.3179C47.6258 29.3143 47.8248 29.3664 48 29.4684C48.1751 29.5705 48.3196 29.7187 48.4178 29.8968C48.516 30.0749 48.5642 30.2762 48.5571 30.4788L48.404 34.8535L53.6287 37.4328C53.8192 37.5269 53.9794 37.6738 54.0903 37.8561C54.2013 38.0384 54.2581 38.2484 54.2542 38.4611C54.2503 38.6738 54.1857 38.8802 54.0682 39.0557C53.9507 39.2312 53.7853 39.3684 53.5915 39.451C51.9483 40.1518 50.2095 40.6056 48.4303 40.7981L47.313 45.803C47.2681 46.0039 47.1684 46.1876 47.0249 46.3335C46.8815 46.4793 46.7001 46.5815 46.501 46.6286C46.302 46.6757 46.0933 46.6657 45.8983 46.5999C45.7033 46.5341 45.5299 46.415 45.3974 46.256C44.2217 44.8442 43.1738 43.3298 42.2665 41.7312L37.5697 43.2652C37.3244 43.3454 37.058 43.3357 36.8172 43.2379C36.5763 43.1401 36.3761 42.9605 36.2521 42.7304ZM41.3354 36.8005C41.4304 36.9767 41.4768 37.1749 41.4697 37.3743C41.4625 37.5737 41.402 37.7668 41.2947 37.9334L39.8466 40.1812L42.4355 39.3356C42.6823 39.2549 42.9505 39.2653 43.1924 39.3648C43.4344 39.4643 43.6345 39.6465 43.7573 39.8791C44.3288 40.9619 44.9692 42.0069 45.6742 43.0076L46.3432 40.0075C46.4063 39.6422 46.5804 39.3068 46.8417 39.0474C47.1472 38.7827 47.5336 38.6306 47.9384 38.6156C48.7181 38.5426 49.491 38.4126 50.2508 38.2267L47.2449 36.7426C46.8727 36.5833 46.5632 36.3029 46.3664 35.9467C46.2269 35.6566 46.1669 35.3349 46.1924 35.0153L46.2735 32.6889C45.6739 33.2044 45.1142 33.765 44.5989 34.3659C44.592 34.384 44.5837 34.4025 44.5753 34.4206C44.391 34.8192 43.9301 35.2153 43.1874 35.1328L39.3366 34.7043L41.1471 36.5454C41.2215 36.6211 41.285 36.707 41.3354 36.8005Z" fill="#FFC02D"/>
<path d="M319.682 36.8382C318.707 37.2332 317.677 37.4734 316.629 37.5503L318.03 35.1827C318.074 35.12 318.102 35.0468 318.11 34.9702C318.102 34.8732 318.062 34.7816 317.997 34.7089L315.903 31.791C316.951 31.8867 317.978 32.1426 318.949 32.5499C319.035 32.5974 319.134 32.6159 319.231 32.6025C319.313 32.5717 319.385 32.517 319.436 32.4454L321.554 30.0274C321.8 31.2284 321.918 32.452 321.907 33.678L325.347 34.2936L322.307 35.9524L323.255 39.1854L319.835 36.8434C319.784 36.8083 319.714 36.7733 319.664 36.81C319.614 36.8467 319.7 36.9458 319.722 36.8875" fill="#FFC02D"/>
<path d="M326.002 34.2943C326.002 34.4125 325.971 34.5286 325.91 34.6302C325.85 34.7318 325.764 34.8153 325.66 34.8718L323.085 36.2764L323.883 39C323.922 39.1302 323.919 39.269 323.875 39.3974C323.832 39.5258 323.749 39.6376 323.64 39.7174C323.531 39.7972 323.399 39.8411 323.264 39.8431C323.129 39.8451 322.996 39.8051 322.885 39.7286L319.722 37.5627C319.694 37.5635 319.666 37.5627 319.638 37.5602C318.686 37.9149 317.689 38.1324 316.677 38.206C316.557 38.2148 316.437 38.1906 316.331 38.136C316.224 38.0814 316.134 37.9985 316.071 37.8963C316.008 37.7941 315.974 37.6765 315.973 37.5563C315.972 37.4361 316.003 37.3179 316.065 37.2145L317.385 34.9823L315.37 32.1752C315.297 32.0729 315.254 31.9515 315.248 31.8256C315.241 31.6997 315.271 31.5745 315.333 31.465C315.395 31.3555 315.488 31.2662 315.599 31.2079C315.711 31.1496 315.837 31.1246 315.962 31.136C317.024 31.2325 318.066 31.4842 319.056 31.8831L321.061 29.5936C321.142 29.5017 321.246 29.4341 321.363 29.3985C321.48 29.3629 321.604 29.3606 321.722 29.392C321.84 29.4233 321.947 29.4871 322.03 29.576C322.114 29.6649 322.172 29.7755 322.196 29.8954C322.414 30.9594 322.535 32.041 322.559 33.1269L325.462 33.6465C325.613 33.6736 325.751 33.7534 325.849 33.8718C325.948 33.9902 326.003 34.1398 326.002 34.2943ZM321.651 35.9524C321.651 35.8341 321.683 35.718 321.743 35.6164C321.803 35.5147 321.89 35.4312 321.993 35.3747L323.391 34.6118L321.791 34.3254C321.639 34.2981 321.501 34.2175 321.402 34.0979C321.303 33.9783 321.249 33.8274 321.251 33.672C321.257 32.9485 321.217 32.2254 321.13 31.5071L319.928 32.8798C319.792 33.0521 319.605 33.1777 319.394 33.2393C319.159 33.2913 318.913 33.262 318.696 33.1563C318.265 32.9755 317.822 32.8263 317.37 32.7099L318.529 34.3249C318.68 34.5122 318.763 34.7448 318.765 34.9852C318.756 35.1753 318.697 35.3594 318.593 35.5185L317.891 36.7057C318.352 36.6057 318.805 36.4712 319.246 36.3032C319.255 36.2957 319.264 36.2885 319.274 36.2814C319.484 36.1258 319.838 36.0491 320.205 36.3003L322.107 37.6033L321.677 36.1379C321.66 36.0777 321.651 36.0152 321.651 35.9524Z" fill="#FFC02D"/>
<path d="M4.43866 22.0571C3.46423 22.452 2.43436 22.6923 1.38616 22.7691L2.78655 20.4015C2.83115 20.3388 2.859 20.2657 2.86742 20.1891C2.85873 20.0921 2.81912 20.0004 2.75446 19.9278L0.660034 17.0098C1.70808 17.1055 2.73536 17.3615 3.70624 17.7687C3.79192 17.8162 3.89061 17.8347 3.9876 17.8214C4.07015 17.7906 4.1417 17.7359 4.19315 17.6642L6.31128 15.2462C6.55708 16.4472 6.67539 17.6709 6.66424 18.8968L10.1042 19.5125L7.06398 21.1713L8.01182 24.4043L4.59219 22.0623C4.54078 22.0272 4.4711 21.9921 4.421 22.0288C4.3709 22.0656 4.45676 22.1647 4.47905 22.1064" fill="#FFC02D"/>
<path d="M10.7595 19.5131C10.7595 19.6314 10.7276 19.7474 10.6674 19.849C10.6071 19.9507 10.5206 20.0341 10.417 20.0906L7.84209 21.4953L8.64051 24.2189C8.67866 24.349 8.67575 24.4878 8.63217 24.6162C8.58859 24.7447 8.50647 24.8564 8.39708 24.9362C8.28769 25.016 8.15637 25.0599 8.02112 25.0619C7.88587 25.0639 7.75331 25.0239 7.64161 24.9474L4.47937 22.7816C4.45131 22.7824 4.42322 22.7815 4.39526 22.779C3.44349 23.1338 2.44632 23.3512 1.4336 23.4248C1.31407 23.4337 1.19442 23.4094 1.08764 23.3548C0.980868 23.3002 0.891057 23.2173 0.827969 23.1151C0.764881 23.0129 0.730929 22.8953 0.729802 22.7751C0.728675 22.6549 0.760416 22.5367 0.821576 22.4334L2.1418 20.2011L0.127455 17.3941C0.0539974 17.2917 0.0114262 17.1704 0.00481388 17.0444C-0.00179848 16.9185 0.0278268 16.7933 0.0901596 16.6838C0.152493 16.5743 0.244905 16.4851 0.356385 16.4268C0.467865 16.3684 0.593712 16.3435 0.718931 16.3549C1.78099 16.4514 2.82327 16.703 3.8127 17.102L5.81821 14.8125C5.89873 14.7206 6.00322 14.653 6.11993 14.6174C6.23664 14.5817 6.36094 14.5795 6.47886 14.6108C6.59678 14.6422 6.70364 14.7059 6.78744 14.7948C6.87123 14.8838 6.92862 14.9944 6.95317 15.1142C7.17083 16.1782 7.29227 17.2598 7.31601 18.3457L10.2187 18.8654C10.3703 18.8925 10.5076 18.9722 10.6064 19.0907C10.7053 19.2091 10.7596 19.3587 10.7595 19.5131ZM6.40786 21.1713C6.40785 21.053 6.43966 20.9369 6.49993 20.8352C6.56021 20.7335 6.64671 20.65 6.75033 20.5935L8.14827 19.8306L6.54827 19.5442C6.39572 19.5169 6.25774 19.4363 6.15879 19.3167C6.05985 19.1971 6.00635 19.0462 6.00777 18.8908C6.0143 18.1673 5.97399 17.4442 5.88711 16.726L4.68536 18.0986C4.54867 18.2709 4.3621 18.3965 4.15133 18.4582C3.91576 18.5101 3.6696 18.4808 3.45266 18.3751C3.02225 18.1943 2.57932 18.0451 2.12737 17.9287L3.28628 19.5437C3.4367 19.731 3.51985 19.9636 3.52234 20.2041C3.51338 20.3941 3.45378 20.5782 3.34975 20.7373L2.64785 21.9245C3.10899 21.8246 3.562 21.69 4.00304 21.522C4.01179 21.5146 4.0214 21.5073 4.03093 21.5002C4.24077 21.3446 4.59522 21.2679 4.96208 21.5191L6.86407 22.8222L6.43452 21.3567C6.41685 21.2965 6.40787 21.2341 6.40786 21.1713Z" fill="#FFC02D"/>
<path d="M231.503 77.7576C234.342 77.6531 237.117 76.8574 239.589 75.4396C242.06 74.0218 244.153 72.0248 245.685 69.6221C247.217 67.2193 248.142 64.4834 248.379 61.6521C248.617 58.8208 248.16 55.9796 247.049 53.3754C245.937 50.7712 244.204 48.4827 242.001 46.7086C239.797 44.9345 237.19 43.7286 234.405 43.1955C231.62 42.6625 228.741 42.8184 226.019 43.6497C223.298 44.4811 220.815 45.9628 218.787 47.966C218.308 48.4385 217.856 48.9377 217.433 49.4612C216.659 50.4226 217.482 51.8151 218.695 51.6092C220.906 51.2311 223.17 51.3895 225.298 52.071C227.426 52.7525 229.355 53.9371 230.921 55.5249C236.337 61.0072 236.214 69.9439 230.649 75.362L230.553 75.4573C229.668 76.3095 230.28 77.8026 231.503 77.7576Z" fill="#F4D163"/>
<path d="M176.635 9.805C175.441 10.2911 174.179 10.5868 172.895 10.6813L174.611 7.76741C174.665 7.6902 174.699 7.60018 174.71 7.50592C174.699 7.38652 174.651 7.27375 174.571 7.18431L172.006 3.59296C173.29 3.71078 174.548 4.02578 175.737 4.52704C175.842 4.58551 175.963 4.60823 176.082 4.59179C176.183 4.55393 176.271 4.48661 176.334 4.39839L178.929 1.42242C179.23 2.90053 179.375 4.4066 179.361 5.91546L183.575 6.67319L179.851 8.71476L181.012 12.6939L176.823 9.81136C176.76 9.76819 176.674 9.72502 176.613 9.77024C176.552 9.81546 176.657 9.93742 176.684 9.86565" fill="#FFC02D"/>
<path d="M184.378 6.67388C184.378 6.81942 184.339 6.96225 184.265 7.08734C184.192 7.21242 184.086 7.31514 183.959 7.38466L180.804 9.11348L181.782 12.4656C181.829 12.6257 181.826 12.7966 181.772 12.9546C181.719 13.1127 181.618 13.2503 181.484 13.3485C181.35 13.4467 181.189 13.5007 181.024 13.5032C180.858 13.5057 180.696 13.4564 180.559 13.3623L176.685 10.6966C176.651 10.6976 176.616 10.6966 176.582 10.6935C175.416 11.1301 174.195 11.3977 172.954 11.4883C172.808 11.4992 172.661 11.4694 172.53 11.4022C172.399 11.335 172.289 11.2329 172.212 11.1071C172.135 10.9813 172.093 10.8366 172.092 10.6887C172.09 10.5408 172.129 10.3953 172.204 10.268L173.822 7.52065L171.354 4.06582C171.264 3.93986 171.212 3.79049 171.204 3.6355C171.196 3.48052 171.232 3.32645 171.308 3.19167C171.385 3.05688 171.498 2.94705 171.634 2.87528C171.771 2.8035 171.925 2.7728 172.079 2.78683C173.38 2.90555 174.656 3.21533 175.868 3.70633L178.325 0.888472C178.424 0.775345 178.552 0.692187 178.695 0.648345C178.838 0.604504 178.99 0.601719 179.134 0.640303C179.279 0.678887 179.41 0.75731 179.512 0.866756C179.615 0.976201 179.685 1.11233 179.715 1.25983C179.982 2.56941 180.131 3.90058 180.16 5.23711L183.716 5.87666C183.902 5.91004 184.07 6.00819 184.191 6.15394C184.312 6.29968 184.378 6.48382 184.378 6.67388ZM179.047 8.7147C179.047 8.56911 179.086 8.42621 179.16 8.30107C179.234 8.17592 179.34 8.07315 179.467 8.0036L181.179 7.06467L179.219 6.7122C179.033 6.67859 178.864 6.57938 178.742 6.43216C178.621 6.28494 178.556 6.09923 178.557 5.90796C178.565 5.01754 178.516 4.12753 178.41 3.24356L176.937 4.93298C176.77 5.14505 176.541 5.29963 176.283 5.37547C175.995 5.43941 175.693 5.4034 175.427 5.27326C174.9 5.05076 174.358 4.86714 173.804 4.72383L175.224 6.71155C175.408 6.94205 175.51 7.22835 175.513 7.52432C175.502 7.75819 175.429 7.98481 175.301 8.18059L174.441 9.64176C175.006 9.51876 175.561 9.35317 176.102 9.14639C176.112 9.13722 176.124 9.12826 176.136 9.11952C176.393 8.92807 176.827 8.83363 177.276 9.14283L179.606 10.7466L179.08 8.94296C179.058 8.86883 179.047 8.79197 179.047 8.7147Z" fill="#FFC02D"/>
<path d="M142.815 58.2609C142.19 57.3823 141.707 56.412 141.383 55.3847L144.077 56.2216C144.15 56.2513 144.229 56.2618 144.308 56.2521C144.403 56.2205 144.485 56.1593 144.542 56.0776L146.959 53.2987C147.111 54.3667 147.099 55.4518 146.922 56.5164C146.894 56.6131 146.899 56.7159 146.936 56.8095C146.986 56.8846 147.057 56.943 147.141 56.9774L150.055 58.5183C148.914 59.0474 147.721 59.4547 146.495 59.7334L146.693 63.31L144.319 60.6699L141.317 62.3797L142.846 58.4152C142.869 58.3556 142.887 58.2778 142.839 58.2366C142.79 58.1953 142.712 58.3043 142.775 58.3128" fill="#FFC02D"/>
<path d="M146.847 63.9641C146.729 63.9921 146.606 63.9877 146.49 63.9517C146.375 63.9156 146.271 63.8491 146.19 63.7591L144.18 61.523L141.65 62.9633C141.529 63.0321 141.39 63.062 141.252 63.0489C141.113 63.0358 140.982 62.9803 140.877 62.8901C140.771 62.7998 140.696 62.6792 140.662 62.5448C140.628 62.4104 140.637 62.2687 140.687 62.1392L142.101 58.4731C142.094 58.4454 142.088 58.4171 142.084 58.3887C141.505 57.5232 141.052 56.5801 140.74 55.5874C140.703 55.4703 140.698 55.3452 140.728 55.2258C140.757 55.1064 140.819 54.9972 140.906 54.9101C140.993 54.823 141.102 54.7614 141.222 54.7318C141.341 54.7023 141.467 54.706 141.585 54.7426L144.124 55.5316L146.45 52.8588C146.535 52.7613 146.646 52.6902 146.77 52.6538C146.894 52.6174 147.026 52.6174 147.15 52.6537C147.274 52.6899 147.385 52.761 147.469 52.8584C147.554 52.9558 147.608 53.0754 147.627 53.203C147.781 54.2851 147.776 55.3842 147.612 56.4654L150.371 57.9243C150.482 57.9829 150.574 58.0711 150.637 58.1791C150.7 58.2871 150.732 58.4106 150.728 58.5356C150.725 58.6606 150.687 58.7823 150.618 58.8868C150.549 58.9914 150.452 59.0748 150.338 59.1277C149.328 59.5963 148.277 59.9732 147.199 60.2536L147.366 63.2716C147.375 63.4292 147.327 63.585 147.233 63.7116C147.138 63.8381 147.001 63.9277 146.847 63.9641ZM144.164 60.0159C144.282 59.9879 144.406 59.9922 144.521 60.0283C144.637 60.0643 144.741 60.1309 144.822 60.2208L145.913 61.4348L145.821 59.7712C145.812 59.6126 145.86 59.4559 145.956 59.329C146.052 59.202 146.19 59.113 146.346 59.0776C147.069 58.9131 147.781 58.7019 148.478 58.4455L146.824 57.5714C146.619 57.4758 146.45 57.3194 146.339 57.1238C146.231 56.9011 146.202 56.6486 146.256 56.4073C146.335 55.9352 146.379 55.4582 146.389 54.9799L145.051 56.5176C144.899 56.7119 144.687 56.8499 144.448 56.9092C144.256 56.9452 144.058 56.9293 143.875 56.8631L142.524 56.4438C142.733 56.8801 142.974 57.3001 143.246 57.7003C143.255 57.7072 143.265 57.7151 143.274 57.7229C143.479 57.8954 143.639 58.2308 143.475 58.6561L142.624 60.8612L143.985 60.0863C144.041 60.0545 144.101 60.0307 144.164 60.0159Z" fill="#FFC02D"/>
</svg>
