<svg width="38" height="38" viewBox="0 0 38 38" fill="none" xmlns="http://www.w3.org/2000/svg">
<path fill-rule="evenodd" clip-rule="evenodd" d="M12.2594 34.5554H25.7408C31.0146 34.5554 34.5564 30.8562 34.5564 25.3517V12.6481C34.5564 7.14362 31.0146 3.44434 25.7424 3.44434H12.2594C6.98715 3.44434 3.44531 7.14362 3.44531 12.6481V25.3517C3.44531 30.8562 6.98715 34.5554 12.2594 34.5554ZM13.5564 17.4441C11.4118 17.4441 9.66927 15.6992 9.66927 13.5552C9.66927 11.4113 11.4118 9.66634 13.5564 9.66634C15.6994 9.66634 17.4435 11.4113 17.4435 13.5552C17.4435 15.6992 15.6994 17.4441 13.5564 17.4441ZM31.1666 23.5634C31.6875 24.899 31.4169 26.5044 30.86 27.8271C30.1999 29.4004 28.936 30.5915 27.3436 31.1116C26.6366 31.3428 25.8951 31.4439 25.1552 31.4439H12.0454C10.7409 31.4439 9.58646 31.1309 8.6401 30.5482C8.04725 30.1822 7.94245 29.3378 8.382 28.7903C9.11719 27.8753 9.84299 26.9571 10.575 26.0308C11.9703 24.2585 12.9104 23.7448 13.9554 24.1959C14.3793 24.3821 14.8047 24.6615 15.2427 24.9568C16.4096 25.7499 18.0317 26.8399 20.1685 25.6568C21.6307 24.8378 22.4788 23.433 23.2173 22.2097L23.2297 22.1893C23.282 22.1034 23.3339 22.0176 23.3856 21.932C23.6338 21.5214 23.8787 21.1162 24.1557 20.7429C24.503 20.2757 25.7903 18.8149 27.4578 19.8551C28.5199 20.5101 29.4131 21.3962 30.3688 22.345C30.7333 22.7078 30.993 23.1203 31.1666 23.5634Z" fill="#5464D9"/>
</svg>
