<svg width="38" height="38" viewBox="0 0 38 38" fill="none" xmlns="http://www.w3.org/2000/svg">
<path fill-rule="evenodd" clip-rule="evenodd" d="M27.4631 10.0344C27.5253 10.1432 27.6342 10.2209 27.7742 10.2209C31.5075 10.2209 34.5564 13.2664 34.5564 16.9956V26.2253C34.5564 29.9545 31.5075 33 27.7742 33H10.2275C6.47865 33 3.44531 29.9545 3.44531 26.2253V16.9956C3.44531 13.2664 6.47865 10.2209 10.2275 10.2209C10.352 10.2209 10.4764 10.1587 10.5231 10.0344L10.6164 9.84795C10.67 9.73508 10.7251 9.61915 10.781 9.50146C11.1789 8.66325 11.6192 7.73591 11.892 7.1909C12.6075 5.79245 13.8209 5.01554 15.3298 5H22.6564C24.1653 5.01554 25.3942 5.79245 26.1098 7.1909C26.3548 7.68037 26.728 8.46881 27.0878 9.22872C27.162 9.38551 27.2357 9.54108 27.3075 9.69256L27.4631 10.0344ZM26.3255 16.0012C26.3255 16.7781 26.9477 17.3997 27.7255 17.3997C28.5033 17.3997 29.1411 16.7781 29.1411 16.0012C29.1411 15.2243 28.5033 14.5872 27.7255 14.5872C26.9477 14.5872 26.3255 15.2243 26.3255 16.0012ZM16.3107 18.4098C17.0418 17.6795 17.9907 17.291 19.0018 17.291C20.0129 17.291 20.9618 17.6795 21.6774 18.3942C22.3929 19.109 22.7818 20.0568 22.7818 21.0668C22.7662 23.149 21.0862 24.8426 19.0018 24.8426C17.9907 24.8426 17.0418 24.4542 16.3262 23.7394C15.6107 23.0246 15.2218 22.0768 15.2218 21.0668V21.0513C15.2062 20.0724 15.5951 19.1245 16.3107 18.4098ZM23.3105 25.3865C22.2061 26.4897 20.6816 27.1734 19.0016 27.1734C17.3683 27.1734 15.8439 26.5363 14.6772 25.3865C13.5261 24.2211 12.8883 22.6984 12.8883 21.0668C12.8727 19.4509 13.5105 17.9281 14.6616 16.7627C15.8283 15.5974 17.3683 14.9603 19.0016 14.9603C20.635 14.9603 22.175 15.5974 23.3261 16.7472C24.4772 17.9126 25.115 19.4509 25.115 21.0668C25.0994 22.7605 24.415 24.2833 23.3105 25.3865Z" fill="#5464D9"/>
</svg>
