<svg width="28" height="30" viewBox="0 0 28 30" fill="none" xmlns="http://www.w3.org/2000/svg">
<path d="M14.268 29.3992C21.779 29.3992 27.868 23.3103 27.868 15.7992C27.868 8.28814 21.779 2.19922 14.268 2.19922C6.75689 2.19922 0.667969 8.28814 0.667969 15.7992C0.667969 23.3103 6.75689 29.3992 14.268 29.3992Z" fill="#5464D9"/>
<path d="M14.268 27.7996C21.779 27.7996 27.868 21.7107 27.868 14.1996C27.868 6.68853 21.779 0.599609 14.268 0.599609C6.75689 0.599609 0.667969 6.68853 0.667969 14.1996C0.667969 21.7107 6.75689 27.7996 14.268 27.7996Z" fill="#ACB3E5"/>
<path d="M14.2684 26.1988C20.4539 26.1988 25.4683 21.1844 25.4683 14.9988C25.4683 8.81323 20.4539 3.79883 14.2684 3.79883C8.08277 3.79883 3.06836 8.81323 3.06836 14.9988C3.06836 21.1844 8.08277 26.1988 14.2684 26.1988Z" fill="#CCCCFF"/>
<path d="M14.2684 25.4C20.4539 25.4 25.4683 20.3856 25.4683 14.2C25.4683 8.01441 20.4539 3 14.2684 3C8.08277 3 3.06836 8.01441 3.06836 14.2C3.06836 20.3856 8.08277 25.4 14.2684 25.4Z" fill="#5464D9"/>
<path d="M7.2583 14.8828C7.16355 14.8828 7.09766 14.8828 7.09766 14.8828L13.2224 20.8716L11.406 14.8828H7.2583Z" fill="white"/>
<path d="M14.0716 20.8222L14.084 20.7851L15.7151 14.8828H12.2676L14.0593 20.7851L14.0716 20.8222Z" fill="white"/>
<path d="M11.5266 14.0542L12.6387 10.166H9.08826C8.92762 10.166 8.78344 10.2566 8.71343 10.4008L7 14.0542C7 14.0542 7.11531 14.0542 7.25949 14.0542H11.5266Z" fill="white"/>
<path d="M21.0005 14.0542L19.2829 10.4008C19.217 10.2566 19.0728 10.166 18.9122 10.166H15.3535L16.4491 14.0542H21.0005Z" fill="white"/>
<path d="M15.5914 14.0583V14.0542L14.4999 10.166H13.499L12.3828 14.0542L15.5914 14.0583Z" fill="white"/>
<path d="M20.7481 14.8828H16.5716L14.957 20.6945L20.9088 14.8828C20.9088 14.8828 20.8346 14.8828 20.7481 14.8828Z" fill="white"/>
</svg>
