<svg width="25" height="24" viewBox="0 0 25 24" fill="none" xmlns="http://www.w3.org/2000/svg">
<path fill-rule="evenodd" clip-rule="evenodd" d="M12.0902 12.619H12.1222C15.0502 12.619 17.4312 10.238 17.4312 7.31C17.4312 4.382 15.0502 2 12.1222 2C9.19319 2 6.81119 4.382 6.81119 7.307C6.80119 10.227 9.16819 12.61 12.0902 12.619ZM8.23919 7.31C8.23919 5.169 9.98119 3.428 12.1222 3.428C14.2622 3.428 16.0032 5.169 16.0032 7.31C16.0032 9.45 14.2622 11.192 12.1222 11.192H12.0932C9.96119 11.184 8.23219 9.444 8.23919 7.31Z" fill="#9E9E9E"/>
<path fill-rule="evenodd" clip-rule="evenodd" d="M4.20117 18.1733C4.20117 21.8703 10.1632 21.8703 12.1222 21.8703C15.5212 21.8703 20.0412 21.4893 20.0412 18.1933C20.0412 14.4963 14.0812 14.4963 12.1222 14.4963C8.72217 14.4963 4.20117 14.8773 4.20117 18.1733ZM5.70117 18.1733C5.70117 16.7283 7.86117 15.9963 12.1222 15.9963C16.3822 15.9963 18.5412 16.7353 18.5412 18.1933C18.5412 19.6383 16.3822 20.3703 12.1222 20.3703C7.86117 20.3703 5.70117 19.6313 5.70117 18.1733Z" fill="#9E9E9E"/>
</svg>
