<svg width="24" height="24" viewBox="0 0 24 24" fill="none" xmlns="http://www.w3.org/2000/svg">
<path d="M15.5668 7.55664V20.8756H5.10192C4.05544 20.8756 3.19922 20.0193 3.19922 18.9729V7.55664H15.5668Z" fill="#5464D9"/>
<path d="M7.00427 2.80078V18.9738C7.00427 20.0202 6.14805 20.8765 5.10156 20.8765H18.8962C19.9426 20.8765 20.7989 20.0202 20.7989 18.9738V2.80078H7.00427Z" fill="#E0E4FF"/>
<path d="M9.85938 5.17773H18.4215V7.08044H9.85938V5.17773ZM9.85938 8.50746H13.6648V9.45882H9.85938V8.50746ZM14.6161 8.50746H18.4215V9.45882H14.6161V8.50746ZM9.85938 10.4102H13.6648V11.3615H9.85938V10.4102ZM14.6161 10.4102H18.4215V11.3615H14.6161V10.4102ZM9.85938 12.3129H13.6648V13.2642H9.85938V12.3129ZM14.6161 12.3129H18.4215V13.2642H14.6161V12.3129ZM9.85938 14.2156H13.6648V15.1669H9.85938V14.2156ZM14.6161 14.2156H18.4215V15.1669H14.6161V14.2156ZM9.85938 16.1183H13.6648V17.0696H9.85938V16.1183ZM14.6161 16.1183H18.4215V17.0696H14.6161V16.1183ZM9.85938 18.021H13.6648V18.9723H9.85938V18.021ZM14.6161 18.021H18.4215V18.9723H14.6161V18.021Z" fill="#5464D9"/>
</svg>
