<svg width="28" height="28" viewBox="0 0 28 28" fill="none" xmlns="http://www.w3.org/2000/svg">
<path fill-rule="evenodd" clip-rule="evenodd" d="M15.3945 15.3926H25.0843V25.0824H15.3945V15.3926ZM17.1445 17.1426V23.3324H23.3343V17.1426H17.1445Z" fill="#212121"/>
<path fill-rule="evenodd" clip-rule="evenodd" d="M19.3633 21.1699L19.3633 19.3065L21.1133 19.3065L21.1133 21.1699L19.3633 21.1699Z" fill="#212121"/>
<path fill-rule="evenodd" clip-rule="evenodd" d="M2.91797 15.3926H12.6078V25.0824H2.91797V15.3926ZM4.66797 17.1426V23.3324H10.8578V17.1426H4.66797Z" fill="#212121"/>
<path fill-rule="evenodd" clip-rule="evenodd" d="M6.88672 21.1699L6.88672 19.3065L8.63672 19.3065L8.63672 21.1699L6.88672 21.1699Z" fill="#212121"/>
<path fill-rule="evenodd" clip-rule="evenodd" d="M15.3945 2.91602H19.9802V4.66602H17.1445V9.47236H15.3945V2.91602ZM21.3494 2.91602H25.0843V6.65097H23.3343V4.66602H21.3494V2.91602ZM25.0843 8.02018V12.6058H21.3494V10.8558H23.3343V8.02018H25.0843ZM15.3945 10.8558H19.7347V12.6058H15.3945V10.8558Z" fill="#212121"/>
<path fill-rule="evenodd" clip-rule="evenodd" d="M21.9883 10.0156H18.1044V5.67751H19.8544V8.26562H21.9883V10.0156Z" fill="#212121"/>
<path fill-rule="evenodd" clip-rule="evenodd" d="M20.9336 7.42578L20.9336 5.66411L22.6836 5.66411L22.6836 7.42578L20.9336 7.42578Z" fill="#212121"/>
<path fill-rule="evenodd" clip-rule="evenodd" d="M2.91797 2.91602H12.6078V12.6058H2.91797V2.91602ZM4.66797 4.66602V10.8558H10.8578V4.66602H4.66797Z" fill="#212121"/>
<path fill-rule="evenodd" clip-rule="evenodd" d="M6.88672 8.69336L6.88672 6.82993L8.63672 6.82993L8.63672 8.69336L6.88672 8.69336Z" fill="#212121"/>
</svg>
