<svg width="430" height="140" viewBox="0 0 430 140" fill="none" xmlns="http://www.w3.org/2000/svg">
<g clip-path="url(#clip0_35743_70618)">
<path fill-rule="evenodd" clip-rule="evenodd" d="M209.46 97L209.405 97.1258C208.079 97.8164 197.106 104.521 194.987 109.292C192.947 113.885 193.974 118.723 198.962 121.078C203.941 123.428 208.14 121.069 210.145 116.447C212.228 111.646 209.898 98.6624 209.526 97.1831L209.581 97.0573L209.513 97.1012L209.5 97.0193L209.46 97.0002L209.46 97Z" fill="#CCCCFF"/>
<path fill-rule="evenodd" clip-rule="evenodd" d="M210.094 14L210.062 14.0704C209.282 14.4572 202.827 18.2116 201.581 20.8834C200.38 23.4553 200.985 26.1649 203.919 27.4837C206.847 28.7998 209.317 27.4788 210.497 24.8903C211.722 22.202 210.352 14.9309 210.133 14.1025L210.165 14.0321L210.125 14.0567L210.118 14.0108L210.094 14Z" fill="#CCCCFF"/>
<path fill-rule="evenodd" clip-rule="evenodd" d="M277.185 73.0002L277.155 73.0656C276.454 73.4247 270.644 76.911 269.523 79.3918C268.442 81.78 268.986 84.2961 271.627 85.5206C274.263 86.7427 276.486 85.516 277.547 83.1125C278.65 80.6162 277.417 73.8644 277.219 73.0951L277.249 73.0297L277.213 73.0526L277.206 73.0099L277.185 73V73.0002Z" fill="#CCCCFF"/>
<path fill-rule="evenodd" clip-rule="evenodd" d="M40.1845 94.0002L40.1553 94.0656C39.4537 94.4247 33.6444 97.911 32.5227 100.392C31.4424 102.78 31.9861 105.296 34.627 106.521C37.2626 107.743 39.4857 106.516 40.5471 104.112C41.65 101.616 40.4167 94.8644 40.2194 94.0951L40.2486 94.0297L40.2125 94.0526L40.2058 94.0099L40.1845 94V94.0002Z" fill="#CCCCFF"/>
<path fill-rule="evenodd" clip-rule="evenodd" d="M128.056 80.8125L128.009 80.9168C126.873 81.4887 117.464 87.0407 115.647 90.9917C113.898 94.7952 114.778 98.8022 119.056 100.752C123.324 102.699 126.924 100.745 128.643 96.9173C130.429 92.9419 128.432 82.1894 128.113 80.9642L128.16 80.8599L128.102 80.8963L128.091 80.8283L128.056 80.8125Z" fill="#CCCCFF"/>
<path fill-rule="evenodd" clip-rule="evenodd" d="M350.826 53.0176L350.778 53.1218C349.642 53.6938 340.234 59.2458 338.417 63.1968C336.667 67.0002 337.548 71.0073 341.825 72.9574C346.094 74.9036 349.694 72.95 351.413 69.1224C353.199 65.1469 351.202 54.3945 350.882 53.1693L350.93 53.065L350.871 53.1013L350.86 53.0334L350.826 53.0176Z" fill="#CCCCFF"/>
<path fill-rule="evenodd" clip-rule="evenodd" d="M108.369 53L108.311 53.1258C106.908 53.8163 95.2889 60.5207 93.0455 65.2918C90.8848 69.8845 91.9721 74.7231 97.2541 77.0781C102.525 79.4282 106.971 77.0694 109.094 72.447C111.3 67.6464 108.833 54.6624 108.439 53.1831L108.497 53.0573L108.425 53.1012L108.412 53.0193L108.369 53.0002L108.369 53Z" fill="#CCCCFF"/>
<path fill-rule="evenodd" clip-rule="evenodd" d="M361.732 107L361.686 107.101C360.595 107.653 351.558 113.017 349.813 116.833C348.133 120.508 348.978 124.378 353.087 126.262C357.186 128.143 360.644 126.255 362.296 122.558C364.011 118.717 362.093 108.33 361.786 107.146L361.831 107.046L361.775 107.081L361.765 107.015L361.732 107L361.732 107Z" fill="#CCCCFF"/>
</g>
<defs>
<clipPath id="clip0_35743_70618">
<rect width="430" height="140" fill="white"/>
</clipPath>
</defs>
</svg>
