<svg width="14" height="14" viewBox="0 0 14 14" fill="none" xmlns="http://www.w3.org/2000/svg">
<path d="M12.25 2.62501V9.18751C12.2496 9.2498 12.236 9.31129 12.21 9.36788C12.1839 9.42446 12.1461 9.47484 12.0991 9.51564C11.2634 10.2392 10.4645 10.5 9.70266 10.5C8.66852 10.5 7.70273 10.022 6.80422 9.57853C5.35227 8.85939 4.09008 8.2365 2.625 9.39368V11.8125C2.625 11.9285 2.57891 12.0398 2.49686 12.1219C2.41481 12.2039 2.30353 12.25 2.1875 12.25C2.07147 12.25 1.96019 12.2039 1.87814 12.1219C1.79609 12.0398 1.75 11.9285 1.75 11.8125V2.62501C1.75042 2.56268 1.76415 2.50117 1.79028 2.44458C1.8164 2.38799 1.85432 2.33763 1.90148 2.29689C3.87023 0.59173 5.63719 1.46509 7.19469 2.23564C8.69531 2.97829 9.99633 3.62032 11.5259 2.29689C11.5892 2.24208 11.6668 2.20656 11.7496 2.19452C11.8324 2.18248 11.9169 2.19444 11.9931 2.22898C12.0693 2.26351 12.134 2.31918 12.1795 2.38937C12.2251 2.45956 12.2495 2.54134 12.25 2.62501Z" fill="#F75555"/>
</svg>
