<svg width="60" height="60" viewBox="0 0 60 60" fill="none" xmlns="http://www.w3.org/2000/svg">
<rect width="60" height="60" rx="10" fill="#FAFAFA"/>
<path d="M41.3233 43.4116L41.32 43.3332H41.3333V33.3332H35.405C33.7083 32.3766 31.7517 31.8232 29.6617 31.8232C27.5717 31.8232 25.615 32.3766 23.9183 33.3332H18V43.3332H18.0033L18 43.4116C18 48.9999 21.9833 53.6649 27.2817 54.7566C28.8558 55.0811 30.4797 55.08 32.0533 54.7532C37.3467 53.6566 41.3233 48.9966 41.3233 43.4116Z" fill="#FFDC5D"/>
<path d="M32.0533 54.7533C31.6133 55.605 31.3333 56.2883 31.3333 56.6667C39.0933 56.6667 46.3333 51.6667 46.3333 51.6667C44.4583 45.52 43.5567 38.1017 43.5567 38.1017C43.5569 36.3811 43.2182 34.6773 42.5598 33.0876C41.9015 31.4979 40.9364 30.0535 39.7198 28.8369C38.5031 27.6203 37.0587 26.6552 35.469 25.9969C33.8794 25.3385 32.1756 24.9998 30.455 25C28.4521 25.0013 26.4765 25.4644 24.6817 26.3533C23.0204 26.3883 21.3927 26.8276 19.9394 27.6331C18.4861 28.4386 17.2509 29.5861 16.3408 30.9763C15.4307 32.3665 14.873 33.9575 14.7161 35.6117C14.5591 37.2659 14.8076 38.9334 15.44 40.47C15.0233 43.155 14.2183 47.6733 13 51.6667C13 51.6667 20.24 56.6667 28 56.6667C28 56.2883 27.7217 55.6067 27.2817 54.7567C21.9833 53.6633 18 49 18 43.4117L18.0033 43.3333H18V38.2733C26.0933 37.9733 30.76 35.2567 33.34 32.72C35.115 34.815 37.9483 37.455 41.3333 38.1483V43.3333H41.32L41.3233 43.4117C41.3233 48.9967 37.3467 53.6567 32.0533 54.7533Z" fill="#F4900C"/>
<path d="M33.0013 58.3327V51.666H26.3346V58.3327H24.668V59.9993H34.668V58.3327H33.0013Z" fill="#FFDC5D"/>
<path d="M29.6666 60H44.3632C43.4999 57.33 40.7649 55 37.9999 55H32.9999L29.6666 60ZM22.9999 55C18.8449 55 15.8732 57.3083 14.9766 60H29.6666L26.3332 55H22.9999Z" fill="#EA596E"/>
<path d="M34.668 49.9999H24.668C24.668 49.9999 25.6396 53.3333 29.668 53.3333C33.6963 53.3333 34.668 49.9999 34.668 49.9999ZM29.668 49.1666C29.5587 49.1679 29.4503 49.1464 29.3498 49.1033C29.2494 49.0603 29.159 48.9967 29.0846 48.9166C28.918 48.7666 28.8346 48.5499 28.8346 48.3333C28.8346 48.1166 28.918 47.8999 29.0846 47.7333C29.368 47.4499 29.9513 47.4333 30.268 47.7499C30.418 47.8999 30.5013 48.1166 30.5013 48.3333C30.5013 48.5499 30.418 48.7666 30.2513 48.9166C30.1769 48.9967 30.0866 49.0603 29.9861 49.1033C29.8856 49.1464 29.7773 49.1679 29.668 49.1666Z" fill="#BF6952"/>
<path d="M24.6667 46.666C24.2246 46.666 23.8007 46.4904 23.4882 46.1779C23.1756 45.8653 23 45.4414 23 44.9993V43.3327C23 42.8907 23.1756 42.4667 23.4882 42.1542C23.8007 41.8416 24.2246 41.666 24.6667 41.666C25.1087 41.666 25.5326 41.8416 25.8452 42.1542C26.1577 42.4667 26.3333 42.8907 26.3333 43.3327V44.9993C26.3333 45.4414 26.1577 45.8653 25.8452 46.1779C25.5326 46.4904 25.1087 46.666 24.6667 46.666ZM34.6667 46.666C34.2246 46.666 33.8007 46.4904 33.4882 46.1779C33.1756 45.8653 33 45.4414 33 44.9993V43.3327C33 42.8907 33.1756 42.4667 33.4882 42.1542C33.8007 41.8416 34.2246 41.666 34.6667 41.666C35.1087 41.666 35.5326 41.8416 35.8452 42.1542C36.1577 42.4667 36.3333 42.8907 36.3333 43.3327V44.9993C36.3333 45.4414 36.1577 45.8653 35.8452 46.1779C35.5326 46.4904 35.1087 46.666 34.6667 46.666Z" fill="#662113"/>
</svg>
