<svg width="21" height="20" viewBox="0 0 21 20" fill="none" xmlns="http://www.w3.org/2000/svg">
<path d="M9.85938 12.4033C9.85938 12.7678 10.1428 13.0565 10.501 13.0566C10.8217 13.0566 11.0935 12.8142 11.1367 12.4932L11.1426 12.4033V7.31641H9.85938V3.86621L8.53516 5.19922C8.28522 5.44916 7.87697 5.44904 7.62695 5.19922C7.39211 4.97195 7.37077 4.61434 7.55664 4.36328L7.61816 4.29102L10.043 1.85742C10.168 1.73245 10.327 1.66602 10.502 1.66602C10.6351 1.66612 10.7684 1.70907 10.876 1.79004L10.9512 1.85742L13.377 4.29102C13.5018 4.41599 13.5684 4.58298 13.5684 4.74121C13.5683 4.90768 13.5017 5.0743 13.377 5.19922C13.1497 5.42643 12.7911 5.4475 12.54 5.26172L12.4678 5.19922L11.1436 3.86621V7.31641H15.126C17.1092 7.31641 18.7394 8.90824 18.8311 10.9111L18.835 11.0889V15.2188C18.8347 17.2365 17.2695 18.8859 15.3086 18.9785L15.1348 18.9824H5.87598C3.8847 18.9822 2.26292 17.3823 2.17188 15.3867L2.16797 15.21V11.0723C2.16797 9.06258 3.73329 7.41294 5.69434 7.32031L5.86816 7.31641H9.85938V12.4033Z" fill="white"/>
</svg>
