<svg width="48" height="48" viewBox="0 0 48 48" fill="none" xmlns="http://www.w3.org/2000/svg">
<path d="M8 10.5C8 9.30653 8.47411 8.16193 9.31802 7.31802C10.1619 6.47411 11.3065 6 12.5 6H31.5C32.6935 6 33.8381 6.47411 34.682 7.31802C35.5259 8.16193 36 9.30653 36 10.5V28H44V35.5C44 37.2239 43.3152 38.8772 42.0962 40.0962C40.8772 41.3152 39.2239 42 37.5 42H14.5C12.7761 42 11.1228 41.3152 9.90381 40.0962C8.68482 38.8772 8 37.2239 8 35.5V10.5ZM36 39H37.5C38.4283 39 39.3185 38.6312 39.9749 37.9749C40.6312 37.3185 41 36.4283 41 35.5V31H36V39ZM15 15.5C15 16.328 15.672 17 16.5 17H27.5C27.8978 17 28.2794 16.842 28.5607 16.5607C28.842 16.2794 29 15.8978 29 15.5C29 15.1022 28.842 14.7206 28.5607 14.4393C28.2794 14.158 27.8978 14 27.5 14H16.5C16.1022 14 15.7206 14.158 15.4393 14.4393C15.158 14.7206 15 15.1022 15 15.5ZM16.5 22C16.1022 22 15.7206 22.158 15.4393 22.4393C15.158 22.7206 15 23.1022 15 23.5C15 23.8978 15.158 24.2794 15.4393 24.5607C15.7206 24.842 16.1022 25 16.5 25H27.5C27.8978 25 28.2794 24.842 28.5607 24.5607C28.842 24.2794 29 23.8978 29 23.5C29 23.1022 28.842 22.7206 28.5607 22.4393C28.2794 22.158 27.8978 22 27.5 22H16.5ZM15 31.5C15 32.328 15.672 33 16.5 33H22.5C22.8978 33 23.2794 32.842 23.5607 32.5607C23.842 32.2794 24 31.8978 24 31.5C24 31.1022 23.842 30.7206 23.5607 30.4393C23.2794 30.158 22.8978 30 22.5 30H16.5C16.1022 30 15.7206 30.158 15.4393 30.4393C15.158 30.7206 15 31.1022 15 31.5Z" fill="#8492F3"/>
</svg>
