<svg width="48" height="48" viewBox="0 0 48 48" fill="none" xmlns="http://www.w3.org/2000/svg">
<path d="M8 10.5C8 9.30653 8.47411 8.16193 9.31802 7.31802C10.1619 6.47411 11.3065 6 12.5 6H31.5C32.6935 6 33.8381 6.47411 34.682 7.31802C35.5259 8.16193 36 9.30653 36 10.5V28H44V35.5C44 37.2239 43.3152 38.8772 42.0962 40.0962C40.8772 41.3152 39.2239 42 37.5 42H14.5C12.7761 42 11.1228 41.3152 9.90381 40.0962C8.68482 38.8772 8 37.2239 8 35.5V10.5ZM36 39H37.5C38.4283 39 39.3185 38.6312 39.9749 37.9749C40.6312 37.3185 41 36.4283 41 35.5V31H36V39ZM15 15.5C15 16.328 15.672 17 16.5 17H27.5C27.8978 17 28.2794 16.842 28.5607 16.5607C28.842 16.2794 29 15.8978 29 15.5C29 15.1022 28.842 14.7206 28.5607 14.4393C28.2794 14.158 27.8978 14 27.5 14H16.5C16.1022 14 15.7206 14.158 15.4393 14.4393C15.158 14.7206 15 15.1022 15 15.5ZM16.5 22C16.1022 22 15.7206 22.158 15.4393 22.4393C15.158 22.7206 15 23.1022 15 23.5C15 23.8978 15.158 24.2794 15.4393 24.5607C15.7206 24.842 16.1022 25 16.5 25H27.5C27.8978 25 28.2794 24.842 28.5607 24.5607C28.842 24.2794 29 23.8978 29 23.5C29 23.1022 28.842 22.7206 28.5607 22.4393C28.2794 22.158 27.8978 22 27.5 22H16.5ZM15 31.5C15 32.328 15.672 33 16.5 33H22.5C22.8978 33 23.2794 32.842 23.5607 32.5607C23.842 32.2794 24 31.8978 24 31.5C24 31.1022 23.842 30.7206 23.5607 30.4393C23.2794 30.158 22.8978 30 22.5 30H16.5C16.1022 30 15.7206 30.158 15.4393 30.4393C15.158 30.7206 15 31.1022 15 31.5Z" fill="#8492F3"/>
<path d="M36.2 22.7999C41.8333 22.7999 46.4 18.2332 46.4 12.5999C46.4 6.9666 41.8333 2.3999 36.2 2.3999C30.5667 2.3999 26 6.9666 26 12.5999C26 18.2332 30.5667 22.7999 36.2 22.7999Z" fill="#F4900C"/>
<path d="M36.2 21.6002C41.8333 21.6002 46.4 17.0335 46.4 11.4002C46.4 5.76689 41.8333 1.2002 36.2 1.2002C30.5667 1.2002 26 5.76689 26 11.4002C26 17.0335 30.5667 21.6002 36.2 21.6002Z" fill="#FFCC4D"/>
<path d="M36.2008 20.4001C40.84 20.4001 44.6008 16.6393 44.6008 12.0001C44.6008 7.3609 40.84 3.6001 36.2008 3.6001C31.5616 3.6001 27.8008 7.3609 27.8008 12.0001C27.8008 16.6393 31.5616 20.4001 36.2008 20.4001Z" fill="#FFE8B6"/>
<path d="M36.2008 19.8C40.84 19.8 44.6008 16.0392 44.6008 11.4C44.6008 6.76081 40.84 3 36.2008 3C31.5616 3 27.8008 6.76081 27.8008 11.4C27.8008 16.0392 31.5616 19.8 36.2008 19.8Z" fill="#FFAC33"/>
<path d="M38.3675 12.1274C38.2639 12.2278 38.2163 12.373 38.2399 12.5154L38.5955 14.4834C38.6255 14.6502 38.5551 14.819 38.4155 14.9154C38.2787 15.0154 38.0967 15.0274 37.9475 14.9474L36.1759 14.0234C36.1143 13.9906 36.0459 13.973 35.9759 13.971H35.8675C35.8299 13.9766 35.7931 13.9886 35.7595 14.007L33.9876 14.9354C33.9 14.9794 33.8008 14.995 33.7036 14.9794C33.4668 14.9346 33.3088 14.709 33.3476 14.471L33.7036 12.503C33.7272 12.3594 33.6796 12.2134 33.576 12.1114L32.1316 10.7114C32.0108 10.5942 31.9688 10.4182 32.024 10.2594C32.0776 10.101 32.2144 9.98541 32.3796 9.95941L34.3675 9.67101C34.5187 9.65541 34.6516 9.56341 34.7195 9.42741L35.5955 7.63141C35.6163 7.59141 35.6432 7.55461 35.6755 7.52341L35.7115 7.49541C35.7303 7.47461 35.7519 7.45741 35.7759 7.44341L35.8195 7.42741L35.8875 7.39941H36.0559C36.2063 7.41501 36.3387 7.50501 36.4079 7.63941L37.2955 9.42741C37.3595 9.55821 37.4839 9.64901 37.6275 9.67101L39.6155 9.95941C39.7835 9.98341 39.9239 10.0994 39.9795 10.2594C40.0319 10.4198 39.9867 10.5958 39.8635 10.7114L38.3675 12.1274Z" fill="white"/>
</svg>
