<svg width="25" height="24" viewBox="0 0 25 24" fill="none" xmlns="http://www.w3.org/2000/svg">
<path d="M4.40039 5.25C4.40039 4.65326 4.63744 4.08097 5.0594 3.65901C5.48136 3.23705 6.05365 3 6.65039 3H16.1504C16.7471 3 17.3194 3.23705 17.7414 3.65901C18.1633 4.08097 18.4004 4.65326 18.4004 5.25V14H22.4004V17.75C22.4004 18.612 22.058 19.4386 21.4485 20.0481C20.839 20.6576 20.0123 21 19.1504 21H7.65039C6.78844 21 5.96179 20.6576 5.35229 20.0481C4.7428 19.4386 4.40039 18.612 4.40039 17.75V5.25ZM18.4004 19.5H19.1504C19.6145 19.5 20.0596 19.3156 20.3878 18.9874C20.716 18.6592 20.9004 18.2141 20.9004 17.75V15.5H18.4004V19.5ZM6.65039 4.5C6.45148 4.5 6.26071 4.57902 6.12006 4.71967C5.97941 4.86032 5.90039 5.05109 5.90039 5.25V17.75C5.90039 18.716 6.68439 19.5 7.65039 19.5H16.9004V5.25C16.9004 5.05109 16.8214 4.86032 16.6807 4.71967C16.5401 4.57902 16.3493 4.5 16.1504 4.5H6.65039ZM8.65039 7C8.45148 7 8.26071 7.07902 8.12006 7.21967C7.97941 7.36032 7.90039 7.55109 7.90039 7.75C7.90039 7.94891 7.97941 8.13968 8.12006 8.28033C8.26071 8.42098 8.45148 8.5 8.65039 8.5H14.1504C14.3493 8.5 14.5401 8.42098 14.6807 8.28033C14.8214 8.13968 14.9004 7.94891 14.9004 7.75C14.9004 7.55109 14.8214 7.36032 14.6807 7.21967C14.5401 7.07902 14.3493 7 14.1504 7H8.65039ZM7.90039 11.75C7.90039 11.5511 7.97941 11.3603 8.12006 11.2197C8.26071 11.079 8.45148 11 8.65039 11H14.1504C14.3493 11 14.5401 11.079 14.6807 11.2197C14.8214 11.3603 14.9004 11.5511 14.9004 11.75C14.9004 11.9489 14.8214 12.1397 14.6807 12.2803C14.5401 12.421 14.3493 12.5 14.1504 12.5H8.65039C8.45148 12.5 8.26071 12.421 8.12006 12.2803C7.97941 12.1397 7.90039 11.9489 7.90039 11.75ZM8.65039 15C8.45148 15 8.26071 15.079 8.12006 15.2197C7.97941 15.3603 7.90039 15.5511 7.90039 15.75C7.90039 15.9489 7.97941 16.1397 8.12006 16.2803C8.26071 16.421 8.45148 16.5 8.65039 16.5H11.6504C11.8493 16.5 12.0401 16.421 12.1807 16.2803C12.3214 16.1397 12.4004 15.9489 12.4004 15.75C12.4004 15.5511 12.3214 15.3603 12.1807 15.2197C12.0401 15.079 11.8493 15 11.6504 15H8.65039Z" fill="#9E9E9E"/>
</svg>
